Sen-Bold.ufo
<glyph name="exclam" format="1">
  <advance width="340"/>
  <unicode hex="0021"/>
  <outline>
    <contour>
      <point x="99" y="670" type="line"/>
      <point x="99" y="240" type="line"/>
      <point x="241" y="240" type="line"/>
      <point x="241" y="670" type="line"/>
    </contour>
    <component base="period" xOffset="44"/>
  </outline>
</glyph>
<glyph name="numbersign" format="1">
  <advance width="850"/>
  <unicode hex="0023"/>
  <outline>
    <contour>
      <point x="596" y="670" type="line"/>
      <point x="393" y="0" type="line"/>
      <point x="521" y="0" type="line"/>
      <point x="727" y="670" type="line"/>
    </contour>
    <contour>
      <point x="80" y="270" type="line"/>
      <point x="80" y="140" type="line"/>
      <point x="700" y="140" type="line"/>
      <point x="700" y="270" type="line"/>
    </contour>
    <contour>
      <point x="343" y="670" type="line"/>
      <point x="140" y="0" type="line"/>
      <point x="268" y="0" type="line"/>
      <point x="474" y="670" type="line"/>
    </contour>
    <contour>
      <point x="150" y="518" type="line"/>
      <point x="150" y="378" type="line"/>
      <point x="770" y="378" type="line"/>
      <point x="770" y="518" type="line"/>
    </contour>
  </outline>
</glyph>
<glyph name="dollar" format="1">
  <advance width="573"/>
  <unicode hex="0024"/>
  <outline>
    <contour>
      <point x="174" y="653"/>
      <point x="63" y="583"/>
      <point x="63" y="455" type="curve" smooth="yes"/>
      <point x="63" y="381"/>
      <point x="89" y="309"/>
      <point x="192" y="276" type="curve" smooth="yes"/>
      <point x="278" y="249" type="line" smooth="yes"/>
      <point x="311" y="239"/>
      <point x="332" y="226"/>
      <point x="332" y="208" type="curve" smooth="yes"/>
      <point x="332" y="182"/>
      <point x="303" y="173"/>
      <point x="261" y="173" type="curve" smooth="yes"/>
      <point x="193" y="173"/>
      <point x="124" y="204"/>
      <point x="66" y="248" type="curve"/>
      <point x="66" y="83" type="line"/>
      <point x="119" y="45"/>
      <point x="195" y="17"/>
      <point x="267" y="17" type="curve" smooth="yes"/>
      <point x="408" y="17"/>
      <point x="520" y="100"/>
      <point x="520" y="217" type="curve" smooth="yes"/>
      <point x="520" y="275"/>
      <point x="487" y="340"/>
      <point x="398" y="373" type="curve" smooth="yes"/>
      <point x="333" y="398" type="line" smooth="yes"/>
      <point x="282" y="417"/>
      <point x="242" y="428"/>
      <point x="242" y="458" type="curve" smooth="yes"/>
      <point x="242" y="486"/>
      <point x="276" y="497"/>
      <point x="316" y="497" type="curve" smooth="yes"/>
      <point x="385" y="497"/>
      <point x="431" y="470"/>
      <point x="483" y="440" type="curve"/>
      <point x="483" y="605" type="line"/>
      <point x="440" y="634"/>
      <point x="364" y="653"/>
      <point x="293" y="653" type="curve" smooth="yes"/>
    </contour>
    <contour>
      <point x="226" y="84" type="line"/>
      <point x="226" y="-44" type="line"/>
      <point x="343" y="-44" type="line"/>
      <point x="343" y="84" type="line"/>
    </contour>
    <contour>
      <point x="226" y="572" type="line"/>
      <point x="343" y="572" type="line"/>
      <point x="343" y="700" type="line"/>
      <point x="226" y="700" type="line"/>
    </contour>
  </outline>
</glyph>
<glyph name="ampersand" format="1">
  <advance width="775"/>
  <unicode hex="0026"/>
  <outline>
    <contour>
      <point x="204" y="685"/>
      <point x="113" y="601"/>
      <point x="113" y="509" type="curve" smooth="yes"/>
      <point x="113" y="423"/>
      <point x="170" y="366"/>
      <point x="236" y="304" type="curve" smooth="yes"/>
      <point x="354" y="193"/>
      <point x="432" y="96"/>
      <point x="528" y="0" type="curve"/>
      <point x="735" y="0" type="line"/>
      <point x="604" y="129"/>
      <point x="495" y="237"/>
      <point x="393" y="353" type="curve" smooth="yes"/>
      <point x="344" y="409"/>
      <point x="292" y="456"/>
      <point x="292" y="492" type="curve" smooth="yes"/>
      <point x="292" y="514"/>
      <point x="306" y="537"/>
      <point x="336" y="537" type="curve" smooth="yes"/>
      <point x="364" y="537"/>
      <point x="382" y="514"/>
      <point x="382" y="492" type="curve" smooth="yes"/>
      <point x="382" y="393"/>
      <point x="40" y="376"/>
      <point x="40" y="170" type="curve" smooth="yes"/>
      <point x="40" y="59"/>
      <point x="138" y="-15"/>
      <point x="270" y="-15" type="curve" smooth="yes"/>
      <point x="412" y="-15"/>
      <point x="482" y="51"/>
      <point x="541" y="126" type="curve" smooth="yes"/>
      <point x="590" y="188"/>
      <point x="644" y="262"/>
      <point x="694" y="350" type="curve"/>
      <point x="516" y="350" type="line"/>
      <point x="490" y="300"/>
      <point x="457" y="261"/>
      <point x="420" y="213" type="curve" smooth="yes"/>
      <point x="380" y="161"/>
      <point x="349" y="133"/>
      <point x="293" y="133" type="curve" smooth="yes"/>
      <point x="261" y="133"/>
      <point x="229" y="152"/>
      <point x="229" y="190" type="curve" smooth="yes"/>
      <point x="229" y="243"/>
      <point x="304" y="264"/>
      <point x="397" y="324" type="curve" smooth="yes"/>
      <point x="464" y="367"/>
      <point x="561" y="411"/>
      <point x="561" y="509" type="curve" smooth="yes"/>
      <point x="561" y="601"/>
      <point x="466" y="685"/>
      <point x="337" y="685" type="curve" smooth="yes"/>
    </contour>
  </outline>
</glyph>
<glyph name="quotesingle" format="1">
  <advance width="262"/>
  <unicode hex="0027"/>
  <outline>
    <contour>
      <point x="60" y="670" type="line"/>
      <point x="60" y="376" type="line"/>
      <point x="202" y="376" type="line"/>
      <point x="202" y="670" type="line"/>
    </contour>
  </outline>
</glyph>
<glyph name="parenleft" format="1">
  <advance width="403"/>
  <unicode hex="0028"/>
  <outline>
    <contour>
      <point x="222" y="690" type="line"/>
      <point x="140" y="605"/>
      <point x="60" y="417"/>
      <point x="60" y="245" type="curve" smooth="yes"/>
      <point x="60" y="63"/>
      <point x="140" y="-115"/>
      <point x="222" y="-200" type="curve"/>
      <point x="373" y="-200" type="line"/>
      <point x="292" y="-110"/>
      <point x="222" y="85"/>
      <point x="222" y="245" type="curve" smooth="yes"/>
      <point x="222" y="395"/>
      <point x="292" y="600"/>
      <point x="373" y="690" type="curve"/>
    </contour>
  </outline>
</glyph>
<glyph name="asterisk" format="1">
  <advance width="498"/>
  <unicode hex="002A"/>
  <outline>
    <contour>
      <point x="187" y="726" type="line"/>
      <point x="192" y="622" type="line"/>
      <point x="100" y="661" type="line"/>
      <point x="60" y="542" type="line"/>
      <point x="157" y="514" type="line"/>
      <point x="88" y="428" type="line"/>
      <point x="189" y="355" type="line"/>
      <point x="249" y="448" type="line"/>
      <point x="309" y="355" type="line"/>
      <point x="410" y="428" type="line"/>
      <point x="341" y="514" type="line"/>
      <point x="438" y="542" type="line"/>
      <point x="398" y="661" type="line"/>
      <point x="306" y="622" type="line"/>
      <point x="311" y="726" type="line"/>
    </contour>
  </outline>
</glyph>
<glyph name="plus" format="1">
  <advance width="550"/>
  <unicode hex="002B"/>
  <outline>
    <contour>
      <point x="200" y="508" type="line"/>
      <point x="200" y="117" type="line"/>
      <point x="350" y="117" type="line"/>
      <point x="350" y="508" type="line"/>
    </contour>
    <contour>
      <point x="80" y="388" type="line"/>
      <point x="80" y="238" type="line"/>
      <point x="470" y="238" type="line"/>
      <point x="470" y="388" type="line"/>
    </contour>
  </outline>
</glyph>
<glyph name="comma" format="1">
  <advance width="284"/>
  <unicode hex="002C"/>
  <outline>
    <contour>
      <point x="16" y="-137" type="line"/>
      <point x="138" y="-153" type="line"/>
      <point x="248" y="84" type="line"/>
      <point x="106" y="112" type="line"/>
    </contour>
  </outline>
</glyph>
<glyph name="hyphen" format="1">
  <advance width="421"/>
  <unicode hex="002D"/>
  <outline>
    <contour>
      <point x="60" y="338" type="line"/>
      <point x="60" y="188" type="line"/>
      <point x="361" y="188" type="line"/>
      <point x="361" y="338" type="line"/>
    </contour>
  </outline>
</glyph>
<glyph name="period" format="1">
  <advance width="252"/>
  <unicode hex="002E"/>
  <outline>
    <contour>
      <point x="126" y="161" type="curve" smooth="yes"/>
      <point x="76" y="161"/>
      <point x="36" y="121"/>
      <point x="36" y="71" type="curve" smooth="yes"/>
      <point x="36" y="22"/>
      <point x="76" y="-19"/>
      <point x="126" y="-19" type="curve" smooth="yes"/>
      <point x="175" y="-19"/>
      <point x="216" y="22"/>
      <point x="216" y="71" type="curve" smooth="yes"/>
      <point x="216" y="121"/>
      <point x="175" y="161"/>
    </contour>
  </outline>
</glyph>
<glyph name="slash" format="1">
  <advance width="474"/>
  <unicode hex="002F"/>
  <outline>
    <contour>
      <point x="434" y="705" type="line"/>
      <point x="303" y="705" type="line"/>
      <point x="40" y="-200" type="line"/>
      <point x="168" y="-200" type="line"/>
    </contour>
  </outline>
</glyph>
<glyph name="zero" format="1">
  <advance width="600"/>
  <unicode hex="0030"/>
  <outline>
    <contour>
      <point x="128" y="685"/>
      <point x="37" y="547"/>
      <point x="37" y="335" type="curve" smooth="yes"/>
      <point x="37" y="123"/>
      <point x="128" y="-15"/>
      <point x="300" y="-15" type="curve" smooth="yes"/>
      <point x="472" y="-15"/>
      <point x="563" y="123"/>
      <point x="563" y="335" type="curve" smooth="yes"/>
      <point x="563" y="547"/>
      <point x="472" y="685"/>
      <point x="300" y="685" type="curve" smooth="yes"/>
    </contour>
    <contour>
      <point x="350" y="530"/>
      <point x="371" y="465"/>
      <point x="371" y="335" type="curve" smooth="yes"/>
      <point x="371" y="205"/>
      <point x="350" y="140"/>
      <point x="300" y="140" type="curve" smooth="yes"/>
      <point x="250" y="140"/>
      <point x="229" y="205"/>
      <point x="229" y="335" type="curve" smooth="yes"/>
      <point x="229" y="465"/>
      <point x="250" y="530"/>
      <point x="300" y="530" type="curve" smooth="yes"/>
    </contour>
  </outline>
</glyph>
<glyph name="one" format="1">
  <advance width="600"/>
  <unicode hex="0031"/>
  <outline>
    <contour>
      <point x="262" y="670" type="line"/>
      <point x="215" y="610"/>
      <point x="137" y="570"/>
      <point x="80" y="550" type="curve"/>
      <point x="80" y="365" type="line"/>
      <point x="122" y="377"/>
      <point x="177" y="398"/>
      <point x="216" y="430" type="curve"/>
      <point x="216" y="0" type="line"/>
      <point x="403" y="0" type="line"/>
      <point x="403" y="670" type="line"/>
    </contour>
    <contour>
      <point x="75" y="165" type="line"/>
      <point x="75" y="0" type="line"/>
      <point x="538" y="0" type="line"/>
      <point x="538" y="165" type="line"/>
    </contour>
  </outline>
</glyph>
<glyph name="two" format="1">
  <advance width="600"/>
  <unicode hex="0032"/>
  <outline>
    <contour>
      <point x="216" y="685"/>
      <point x="135" y="657"/>
      <point x="90" y="619" type="curve"/>
      <point x="90" y="429" type="line"/>
      <point x="128" y="474"/>
      <point x="194" y="510"/>
      <point x="250" y="510" type="curve" smooth="yes"/>
      <point x="303" y="510"/>
      <point x="338" y="475"/>
      <point x="338" y="425" type="curve" smooth="yes"/>
      <point x="338" y="352"/>
      <point x="260" y="263"/>
      <point x="80" y="76" type="curve"/>
      <point x="80" y="0" type="line"/>
      <point x="535" y="0" type="line"/>
      <point x="535" y="150" type="line"/>
      <point x="349" y="150" type="line"/>
      <point x="467" y="287"/>
      <point x="530" y="342"/>
      <point x="530" y="476" type="curve" smooth="yes"/>
      <point x="530" y="598"/>
      <point x="434" y="685"/>
      <point x="292" y="685" type="curve" smooth="yes"/>
    </contour>
  </outline>
</glyph>
<glyph name="three" format="1">
  <advance width="600"/>
  <unicode hex="0033"/>
  <outline>
    <contour>
      <point x="262" y="685" type="curve" smooth="yes"/>
      <point x="188" y="685"/>
      <point x="137" y="661"/>
      <point x="102" y="629" type="curve"/>
      <point x="102" y="468" type="line"/>
      <point x="140" y="504"/>
      <point x="178" y="520"/>
      <point x="225" y="520" type="curve" smooth="yes"/>
      <point x="277" y="520"/>
      <point x="328" y="499"/>
      <point x="328" y="450" type="curve" smooth="yes"/>
      <point x="328" y="401"/>
      <point x="276" y="409"/>
      <point x="222" y="409" type="curve"/>
      <point x="172" y="409" type="line"/>
      <point x="172" y="273" type="line"/>
      <point x="222" y="273" type="line"/>
      <point x="276" y="273"/>
      <point x="328" y="266"/>
      <point x="328" y="220" type="curve" smooth="yes"/>
      <point x="328" y="170"/>
      <point x="282" y="150"/>
      <point x="225" y="150" type="curve" smooth="yes"/>
      <point x="175" y="150"/>
      <point x="132" y="166"/>
      <point x="87" y="195" type="curve"/>
      <point x="87" y="32" type="line"/>
      <point x="124" y="4"/>
      <point x="191" y="-15"/>
      <point x="257" y="-15" type="curve" smooth="yes"/>
      <point x="399" y="-15"/>
      <point x="520" y="66"/>
      <point x="520" y="188" type="curve" smooth="yes"/>
      <point x="520" y="278"/>
      <point x="462" y="324"/>
      <point x="390" y="338" type="curve"/>
      <point x="462" y="348"/>
      <point x="520" y="402"/>
      <point x="520" y="492" type="curve" smooth="yes"/>
      <point x="520" y="605"/>
      <point x="412" y="685"/>
    </contour>
  </outline>
</glyph>
<glyph name="four" format="1">
  <advance width="600"/>
  <unicode hex="0034"/>
  <outline>
    <contour>
      <point x="332" y="670" type="line"/>
      <point x="237" y="513"/>
      <point x="153" y="397"/>
      <point x="48" y="278" type="curve"/>
      <point x="48" y="148" type="line"/>
      <point x="306" y="148" type="line"/>
      <point x="306" y="0" type="line"/>
      <point x="473" y="0" type="line"/>
      <point x="473" y="148" type="line"/>
      <point x="550" y="148" type="line"/>
      <point x="550" y="298" type="line"/>
      <point x="473" y="298" type="line"/>
      <point x="473" y="670" type="line"/>
    </contour>
    <contour>
      <point x="306" y="298" type="line"/>
      <point x="244" y="298" type="line"/>
      <point x="269" y="330"/>
      <point x="279" y="348"/>
      <point x="306" y="386" type="curve"/>
    </contour>
  </outline>
</glyph>
<glyph name="five" format="1">
  <advance width="600"/>
  <unicode hex="0035"/>
  <outline>
    <contour>
      <point x="109" y="670" type="line"/>
      <point x="109" y="262" type="line"/>
      <point x="146" y="272"/>
      <point x="187" y="282"/>
      <point x="238" y="282" type="curve" smooth="yes"/>
      <point x="307" y="282"/>
      <point x="346" y="252"/>
      <point x="346" y="211" type="curve" smooth="yes"/>
      <point x="346" y="161"/>
      <point x="303" y="150"/>
      <point x="233" y="150" type="curve" smooth="yes"/>
      <point x="174" y="150"/>
      <point x="134" y="165"/>
      <point x="76" y="193" type="curve"/>
      <point x="76" y="44" type="line"/>
      <point x="111" y="20"/>
      <point x="165" y="-15"/>
      <point x="270" y="-15" type="curve" smooth="yes"/>
      <point x="412" y="-15"/>
      <point x="538" y="60"/>
      <point x="538" y="235" type="curve" smooth="yes"/>
      <point x="538" y="352"/>
      <point x="452" y="419"/>
      <point x="361" y="419" type="curve" smooth="yes"/>
      <point x="330" y="419"/>
      <point x="288" y="412"/>
      <point x="262" y="401" type="curve"/>
      <point x="262" y="505" type="line"/>
      <point x="485" y="505" type="line"/>
      <point x="485" y="670" type="line"/>
    </contour>
  </outline>
</glyph>
<glyph name="six" format="1">
  <advance width="600"/>
  <unicode hex="0036"/>
  <outline>
    <contour>
      <point x="260" y="670" type="line"/>
      <point x="176" y="590"/>
      <point x="40" y="421"/>
      <point x="40" y="242" type="curve" smooth="yes"/>
      <point x="40" y="84"/>
      <point x="167" y="-15"/>
      <point x="301" y="-15" type="curve" smooth="yes"/>
      <point x="443" y="-15"/>
      <point x="562" y="84"/>
      <point x="562" y="237" type="curve" smooth="yes"/>
      <point x="562" y="373"/>
      <point x="458" y="459"/>
      <point x="347" y="459" type="curve" smooth="yes"/>
      <point x="323" y="459"/>
      <point x="300" y="457"/>
      <point x="271" y="438" type="curve"/>
      <point x="320" y="522"/>
      <point x="397" y="592"/>
      <point x="477" y="670" type="curve"/>
    </contour>
    <contour>
      <point x="344" y="300"/>
      <point x="370" y="265"/>
      <point x="370" y="225" type="curve" smooth="yes"/>
      <point x="370" y="185"/>
      <point x="344" y="150"/>
      <point x="301" y="150" type="curve" smooth="yes"/>
      <point x="258" y="150"/>
      <point x="232" y="185"/>
      <point x="232" y="225" type="curve" smooth="yes"/>
      <point x="232" y="265"/>
      <point x="258" y="300"/>
      <point x="301" y="300" type="curve" smooth="yes"/>
    </contour>
  </outline>
</glyph>
<glyph name="seven" format="1">
  <advance width="600"/>
  <unicode hex="0037"/>
  <outline>
    <contour>
      <point x="73" y="670" type="line"/>
      <point x="73" y="505" type="line"/>
      <point x="312" y="505" type="line"/>
      <point x="236" y="349"/>
      <point x="137" y="162"/>
      <point x="137" y="0" type="curve"/>
      <point x="354" y="0" type="line"/>
      <point x="354" y="223"/>
      <point x="442" y="359"/>
      <point x="559" y="598" type="curve"/>
      <point x="559" y="670" type="line"/>
    </contour>
  </outline>
</glyph>
<glyph name="eight" format="1">
  <advance width="600"/>
  <unicode hex="0038"/>
  <outline>
    <contour>
      <point x="178" y="685"/>
      <point x="79" y="616"/>
      <point x="79" y="497" type="curve" smooth="yes"/>
      <point x="79" y="420"/>
      <point x="122" y="374"/>
      <point x="166" y="353" type="curve"/>
      <point x="113" y="334"/>
      <point x="59" y="278"/>
      <point x="59" y="202" type="curve" smooth="yes"/>
      <point x="59" y="72"/>
      <point x="168" y="-15"/>
      <point x="300" y="-15" type="curve" smooth="yes"/>
      <point x="432" y="-15"/>
      <point x="541" y="72"/>
      <point x="541" y="202" type="curve" smooth="yes"/>
      <point x="541" y="278"/>
      <point x="487" y="334"/>
      <point x="434" y="353" type="curve"/>
      <point x="478" y="374"/>
      <point x="521" y="420"/>
      <point x="521" y="497" type="curve" smooth="yes"/>
      <point x="521" y="616"/>
      <point x="422" y="685"/>
      <point x="300" y="685" type="curve" smooth="yes"/>
    </contour>
    <contour>
      <point x="338" y="282"/>
      <point x="366" y="255"/>
      <point x="366" y="208" type="curve" smooth="yes"/>
      <point x="366" y="161"/>
      <point x="338" y="136"/>
      <point x="300" y="136" type="curve" smooth="yes"/>
      <point x="261" y="136"/>
      <point x="234" y="161"/>
      <point x="234" y="208" type="curve" smooth="yes"/>
      <point x="234" y="255"/>
      <point x="261" y="282"/>
      <point x="300" y="282" type="curve" smooth="yes"/>
    </contour>
    <contour>
      <point x="334" y="534"/>
      <point x="360" y="509"/>
      <point x="360" y="467" type="curve" smooth="yes"/>
      <point x="360" y="425"/>
      <point x="334" y="396"/>
      <point x="300" y="396" type="curve" smooth="yes"/>
      <point x="266" y="396"/>
      <point x="240" y="425"/>
      <point x="240" y="467" type="curve" smooth="yes"/>
      <point x="240" y="509"/>
      <point x="266" y="534"/>
      <point x="300" y="534" type="curve" smooth="yes"/>
    </contour>
  </outline>
</glyph>
<glyph name="less" format="1">
  <advance width="600"/>
  <unicode hex="003C"/>
  <outline>
    <contour>
      <point x="530" y="593" type="line"/>
      <point x="60" y="327" type="line"/>
      <point x="60" y="276" type="line"/>
      <point x="530" y="0" type="line"/>
      <point x="530" y="178" type="line"/>
      <point x="284" y="303" type="line"/>
      <point x="530" y="415" type="line"/>
    </contour>
  </outline>
</glyph>
<glyph name="equal" format="1">
  <advance width="551"/>
  <unicode hex="003D"/>
  <outline>
    <contour>
      <point x="80" y="493" type="line"/>
      <point x="80" y="343" type="line"/>
      <point x="471" y="343" type="line"/>
      <point x="471" y="493" type="line"/>
    </contour>
    <contour>
      <point x="80" y="278" type="line"/>
      <point x="80" y="128" type="line"/>
      <point x="471" y="128" type="line"/>
      <point x="471" y="278" type="line"/>
    </contour>
  </outline>
</glyph>
<glyph name="question" format="1">
  <advance width="610"/>
  <unicode hex="003F"/>
  <outline>
    <contour>
      <point x="188" y="685"/>
      <point x="126" y="656"/>
      <point x="80" y="616" type="curve"/>
      <point x="80" y="461" type="line"/>
      <point x="128" y="512"/>
      <point x="195" y="530"/>
      <point x="255" y="530" type="curve" smooth="yes"/>
      <point x="315" y="530"/>
      <point x="368" y="502"/>
      <point x="368" y="457" type="curve" smooth="yes"/>
      <point x="368" y="381"/>
      <point x="193" y="331"/>
      <point x="193" y="258" type="curve" smooth="yes"/>
      <point x="193" y="218" type="line"/>
      <point x="350" y="218" type="line"/>
      <point x="349" y="239" type="line" smooth="yes"/>
      <point x="346" y="306"/>
      <point x="530" y="336"/>
      <point x="530" y="470" type="curve" smooth="yes"/>
      <point x="530" y="613"/>
      <point x="405" y="685"/>
      <point x="285" y="685" type="curve" smooth="yes"/>
    </contour>
    <component base="period" xOffset="150"/>
  </outline>
</glyph>
<glyph name="at" format="1">
  <advance width="794"/>
  <unicode hex="0040"/>
  <outline>
    <contour>
      <point x="193" y="612"/>
      <point x="35" y="456"/>
      <point x="35" y="243" type="curve" smooth="yes"/>
      <point x="35" y="30"/>
      <point x="193" y="-107"/>
      <point x="397" y="-107" type="curve" smooth="yes"/>
      <point x="474" y="-107"/>
      <point x="541" y="-94"/>
      <point x="609" y="-60" type="curve"/>
      <point x="563" y="27" type="line"/>
      <point x="515" y="5"/>
      <point x="471" y="-2"/>
      <point x="397" y="-2" type="curve" smooth="yes"/>
      <point x="257" y="-2"/>
      <point x="148" y="77"/>
      <point x="148" y="243" type="curve" smooth="yes"/>
      <point x="148" y="410"/>
      <point x="261" y="506"/>
      <point x="397" y="506" type="curve" smooth="yes"/>
      <point x="534" y="506"/>
      <point x="646" y="445"/>
      <point x="646" y="278" type="curve" smooth="yes"/>
      <point x="646" y="189"/>
      <point x="603" y="170"/>
      <point x="577" y="170" type="curve" smooth="yes"/>
      <point x="541" y="170"/>
      <point x="528" y="199"/>
      <point x="542" y="254" type="curve" smooth="yes"/>
      <point x="585" y="427" type="line"/>
      <point x="481" y="427" type="line"/>
      <point x="474" y="398" type="line"/>
      <point x="459" y="418"/>
      <point x="424" y="440"/>
      <point x="378" y="440" type="curve" smooth="yes"/>
      <point x="290" y="440"/>
      <point x="197" y="368"/>
      <point x="186" y="248" type="curve" smooth="yes"/>
      <point x="175" y="133"/>
      <point x="235" y="71"/>
      <point x="330" y="71" type="curve" smooth="yes"/>
      <point x="377" y="71"/>
      <point x="420" y="85"/>
      <point x="456" y="124" type="curve"/>
      <point x="469" y="100"/>
      <point x="511" y="71"/>
      <point x="568" y="71" type="curve" smooth="yes"/>
      <point x="685" y="71"/>
      <point x="759" y="159"/>
      <point x="759" y="278" type="curve" smooth="yes"/>
      <point x="759" y="483"/>
      <point x="601" y="612"/>
      <point x="397" y="612" type="curve" smooth="yes"/>
    </contour>
    <contour>
      <point x="415" y="330"/>
      <point x="439" y="324"/>
      <point x="455" y="314" type="curve"/>
      <point x="443" y="262" type="line" smooth="yes"/>
      <point x="426" y="187"/>
      <point x="395" y="170"/>
      <point x="354" y="170" type="curve" smooth="yes"/>
      <point x="320" y="170"/>
      <point x="292" y="198"/>
      <point x="303" y="248" type="curve" smooth="yes"/>
      <point x="316" y="307"/>
      <point x="355" y="330"/>
      <point x="393" y="330" type="curve" smooth="yes"/>
    </contour>
  </outline>
</glyph>
<glyph name="A" format="1">
  <advance width="732"/>
  <unicode hex="0041"/>
  <outline>
    <contour>
      <point x="413" y="680" type="line"/>
      <point x="319" y="680" type="line"/>
      <point x="15" y="0" type="line"/>
      <point x="233" y="0" type="line"/>
      <point x="366" y="378" type="line"/>
      <point x="499" y="0" type="line"/>
      <point x="717" y="0" type="line"/>
    </contour>
    <contour>
      <point x="547" y="240" type="line"/>
      <point x="166" y="240" type="line"/>
      <point x="166" y="100" type="line"/>
      <point x="547" y="100" type="line"/>
    </contour>
    <contour>
      <point x="653" y="10" type="move" name="ogonek"/>
    </contour>
    <contour>
      <point x="364" y="670" type="move" name="top"/>
    </contour>
  </outline>
</glyph>
<glyph name="B" format="1">
  <advance width="704"/>
  <unicode hex="0042"/>
  <outline>
    <contour>
      <point x="263" y="686"/>
      <point x="171" y="676"/>
      <point x="90" y="660" type="curve"/>
      <point x="90" y="15" type="line"/>
      <point x="153" y="1"/>
      <point x="292" y="-15"/>
      <point x="385" y="-15" type="curve" smooth="yes"/>
      <point x="547" y="-15"/>
      <point x="664" y="85"/>
      <point x="664" y="197" type="curve" smooth="yes"/>
      <point x="664" y="286"/>
      <point x="608" y="322"/>
      <point x="546" y="344" type="curve"/>
      <point x="598" y="373"/>
      <point x="634" y="423"/>
      <point x="634" y="491" type="curve" smooth="yes"/>
      <point x="634" y="607"/>
      <point x="524" y="686"/>
      <point x="359" y="686" type="curve" smooth="yes"/>
    </contour>
    <contour>
      <point x="415" y="517"/>
      <point x="450" y="493"/>
      <point x="450" y="457" type="curve" smooth="yes"/>
      <point x="450" y="415"/>
      <point x="415" y="394"/>
      <point x="371" y="394" type="curve" smooth="yes"/>
      <point x="247" y="394" type="line"/>
      <point x="247" y="269" type="line"/>
      <point x="365" y="269" type="line" smooth="yes"/>
      <point x="419" y="269"/>
      <point x="464" y="253"/>
      <point x="464" y="213" type="curve" smooth="yes"/>
      <point x="464" y="172"/>
      <point x="426" y="150"/>
      <point x="372" y="150" type="curve" smooth="yes"/>
      <point x="351" y="150"/>
      <point x="305" y="153"/>
      <point x="277" y="162" type="curve"/>
      <point x="277" y="509" type="line"/>
      <point x="301" y="514"/>
      <point x="334" y="517"/>
      <point x="366" y="517" type="curve" smooth="yes"/>
    </contour>
  </outline>
</glyph>
<glyph name="C" format="1">
  <advance width="612"/>
  <unicode hex="0043"/>
  <outline>
    <contour>
      <point x="213" y="685"/>
      <point x="40" y="557"/>
      <point x="40" y="335" type="curve" smooth="yes"/>
      <point x="40" y="113"/>
      <point x="213" y="-15"/>
      <point x="395" y="-15" type="curve" smooth="yes"/>
      <point x="465" y="-15"/>
      <point x="527" y="5"/>
      <point x="572" y="44" type="curve"/>
      <point x="572" y="225" type="line"/>
      <point x="519" y="182"/>
      <point x="479" y="160"/>
      <point x="402" y="160" type="curve" smooth="yes"/>
      <point x="312" y="160"/>
      <point x="232" y="235"/>
      <point x="232" y="335" type="curve" smooth="yes"/>
      <point x="232" y="435"/>
      <point x="312" y="510"/>
      <point x="402" y="510" type="curve" smooth="yes"/>
      <point x="479" y="510"/>
      <point x="519" y="488"/>
      <point x="572" y="445" type="curve"/>
      <point x="572" y="626" type="line"/>
      <point x="527" y="665"/>
      <point x="465" y="685"/>
      <point x="395" y="685" type="curve" smooth="yes"/>
    </contour>
    <contour>
      <point x="394" y="670" type="move" name="top"/>
    </contour>
    <contour>
      <point x="389" y="0" type="move" name="bottom"/>
    </contour>
  </outline>
</glyph>
<glyph name="D" format="1">
  <advance width="761"/>
  <unicode hex="0044"/>
  <outline>
    <contour>
      <point x="275" y="686"/>
      <point x="175" y="672"/>
      <point x="90" y="658" type="curve"/>
      <point x="90" y="13" type="line"/>
      <point x="171" y="-4"/>
      <point x="286" y="-15"/>
      <point x="378" y="-15" type="curve" smooth="yes"/>
      <point x="585" y="-15"/>
      <point x="721" y="148"/>
      <point x="721" y="346" type="curve" smooth="yes"/>
      <point x="721" y="562"/>
      <point x="563" y="686"/>
      <point x="363" y="686" type="curve" smooth="yes"/>
    </contour>
    <contour>
      <point x="471" y="511"/>
      <point x="529" y="440"/>
      <point x="529" y="336" type="curve" smooth="yes"/>
      <point x="529" y="237"/>
      <point x="471" y="160"/>
      <point x="369" y="160" type="curve" smooth="yes"/>
      <point x="341" y="160"/>
      <point x="307" y="163"/>
      <point x="277" y="172" type="curve"/>
      <point x="277" y="499" type="line"/>
      <point x="303" y="505"/>
      <point x="338" y="511"/>
      <point x="369" y="511" type="curve" smooth="yes"/>
    </contour>
    <contour>
      <point x="390" y="335" type="move" name="center"/>
    </contour>
    <contour>
      <point x="330" y="670" type="move" name="top"/>
    </contour>
  </outline>
</glyph>
<glyph name="E" format="1">
  <advance width="658"/>
  <unicode hex="0045"/>
  <outline>
    <contour>
      <point x="90" y="670" type="line"/>
      <point x="90" y="0" type="line"/>
      <point x="578" y="0" type="line"/>
      <point x="578" y="160" type="line"/>
      <point x="277" y="160" type="line"/>
      <point x="277" y="515" type="line"/>
      <point x="578" y="515" type="line"/>
      <point x="578" y="670" type="line"/>
    </contour>
    <contour>
      <point x="197" y="409" type="line"/>
      <point x="197" y="269" type="line"/>
      <point x="543" y="269" type="line"/>
      <point x="543" y="409" type="line"/>
    </contour>
    <contour>
      <point x="585" y="10" type="move" name="ogonek"/>
    </contour>
    <contour>
      <point x="334" y="0" type="move" name="bottom"/>
    </contour>
    <contour>
      <point x="334" y="670" type="move" name="top"/>
    </contour>
  </outline>
</glyph>
<glyph name="F" format="1">
  <advance width="635"/>
  <unicode hex="0046"/>
  <outline>
    <contour>
      <point x="90" y="670" type="line"/>
      <point x="90" y="0" type="line"/>
      <point x="277" y="0" type="line"/>
      <point x="277" y="505" type="line"/>
      <point x="565" y="505" type="line"/>
      <point x="565" y="670" type="line"/>
    </contour>
    <contour>
      <point x="167" y="391" type="line"/>
      <point x="167" y="226" type="line"/>
      <point x="515" y="226" type="line"/>
      <point x="515" y="391" type="line"/>
    </contour>
  </outline>
</glyph>
<glyph name="G" format="1">
  <advance width="725"/>
  <unicode hex="0047"/>
  <outline>
    <contour>
      <point x="213" y="685"/>
      <point x="40" y="557"/>
      <point x="40" y="335" type="curve" smooth="yes"/>
      <point x="40" y="113"/>
      <point x="213" y="-15"/>
      <point x="395" y="-15" type="curve" smooth="yes"/>
      <point x="495" y="-15"/>
      <point x="597" y="24"/>
      <point x="660" y="89" type="curve"/>
      <point x="502" y="193" type="line"/>
      <point x="486" y="175"/>
      <point x="449" y="160"/>
      <point x="402" y="160" type="curve" smooth="yes"/>
      <point x="312" y="160"/>
      <point x="232" y="235"/>
      <point x="232" y="335" type="curve" smooth="yes"/>
      <point x="232" y="435"/>
      <point x="312" y="510"/>
      <point x="402" y="510" type="curve" smooth="yes"/>
      <point x="479" y="510"/>
      <point x="519" y="488"/>
      <point x="572" y="445" type="curve"/>
      <point x="572" y="626" type="line"/>
      <point x="527" y="665"/>
      <point x="465" y="685"/>
      <point x="395" y="685" type="curve" smooth="yes"/>
    </contour>
    <contour>
      <point x="500" y="346" type="line"/>
      <point x="498" y="29" type="line"/>
      <point x="660" y="89" type="line"/>
      <point x="660" y="346" type="line"/>
    </contour>
    <contour>
      <point x="500" y="226" type="line"/>
      <point x="660" y="226" type="line"/>
      <point x="660" y="346" type="line"/>
      <point x="500" y="346" type="line"/>
    </contour>
  </outline>
</glyph>
<glyph name="H" format="1">
  <advance width="794"/>
  <unicode hex="0048"/>
  <outline>
    <contour>
      <point x="517" y="670" type="line"/>
      <point x="517" y="0" type="line"/>
      <point x="704" y="0" type="line"/>
      <point x="704" y="670" type="line"/>
    </contour>
    <contour>
      <point x="90" y="670" type="line"/>
      <point x="90" y="0" type="line"/>
      <point x="277" y="0" type="line"/>
      <point x="277" y="670" type="line"/>
    </contour>
    <contour>
      <point x="257" y="405" type="line"/>
      <point x="257" y="240" type="line"/>
      <point x="545" y="240" type="line"/>
      <point x="545" y="405" type="line"/>
    </contour>
  </outline>
</glyph>
<glyph name="I" format="1">
  <advance width="573"/>
  <unicode hex="0049"/>
  <outline>
    <contour>
      <point x="193" y="670" type="line"/>
      <point x="193" y="0" type="line"/>
      <point x="380" y="0" type="line"/>
      <point x="380" y="670" type="line"/>
    </contour>
    <contour>
      <point x="80" y="165" type="line"/>
      <point x="80" y="0" type="line"/>
      <point x="493" y="0" type="line"/>
      <point x="493" y="165" type="line"/>
    </contour>
    <contour>
      <point x="80" y="670" type="line"/>
      <point x="80" y="505" type="line"/>
      <point x="493" y="505" type="line"/>
      <point x="493" y="670" type="line"/>
    </contour>
    <contour>
      <point x="369" y="10" type="move" name="ogonek"/>
    </contour>
    <contour>
      <point x="287" y="670" type="move" name="top"/>
    </contour>
  </outline>
</glyph>
<glyph name="J" format="1">
  <advance width="384"/>
  <unicode hex="004A"/>
  <outline>
    <contour>
      <point x="117" y="672" type="line"/>
      <point x="117" y="54" type="line" smooth="yes"/>
      <point x="117" y="-23"/>
      <point x="67" y="-72"/>
      <point x="-30" y="-93" type="curve"/>
      <point x="32" y="-255" type="line"/>
      <point x="193" y="-222"/>
      <point x="304" y="-120"/>
      <point x="304" y="47" type="curve" smooth="yes"/>
      <point x="304" y="672" type="line"/>
    </contour>
  </outline>
</glyph>
<glyph name="K" format="1">
  <advance width="710"/>
  <unicode hex="004B"/>
  <outline>
    <contour>
      <point x="682" y="670" type="line"/>
      <point x="467" y="670" type="line"/>
      <point x="129" y="268" type="line"/>
      <point x="248" y="181" type="line"/>
    </contour>
    <contour>
      <point x="267" y="670" type="line"/>
      <point x="80" y="670" type="line"/>
      <point x="80" y="0" type="line"/>
      <point x="267" y="0" type="line"/>
    </contour>
    <contour>
      <point x="377" y="429" type="line"/>
      <point x="231" y="330" type="line"/>
      <point x="465" y="0" type="line"/>
      <point x="695" y="0" type="line"/>
    </contour>
    <contour>
      <point x="379" y="0" type="move" name="bottom"/>
    </contour>
    <contour>
      <point x="379" y="670" type="move" name="top"/>
    </contour>
  </outline>
</glyph>
<glyph name="L" format="1">
  <advance width="618"/>
  <unicode hex="004C"/>
  <outline>
    <contour>
      <point x="267" y="670" type="line"/>
      <point x="80" y="670" type="line"/>
      <point x="80" y="0" type="line"/>
      <point x="558" y="0" type="line"/>
      <point x="558" y="165" type="line"/>
      <point x="267" y="165" type="line"/>
    </contour>
    <contour>
      <point x="309" y="0" type="move" name="bottom"/>
    </contour>
    <contour>
      <point x="238" y="670" type="move" name="top"/>
    </contour>
    <contour>
      <point x="588" y="670" type="move" name="topright"/>
    </contour>
  </outline>
</glyph>
<glyph name="M" format="1">
  <advance width="864"/>
  <unicode hex="004D"/>
  <outline>
    <contour>
      <point x="784" y="680" type="line"/>
      <point x="718" y="680" type="line"/>
      <point x="432" y="390" type="line"/>
      <point x="146" y="680" type="line"/>
      <point x="80" y="680" type="line"/>
      <point x="80" y="0" type="line"/>
      <point x="267" y="0" type="line"/>
      <point x="267" y="330" type="line"/>
      <point x="404" y="175" type="line"/>
      <point x="460" y="175" type="line"/>
      <point x="597" y="330" type="line"/>
      <point x="597" y="0" type="line"/>
      <point x="784" y="0" type="line"/>
    </contour>
  </outline>
</glyph>
<glyph name="N" format="1">
  <advance width="772"/>
  <unicode hex="004E"/>
  <outline>
    <contour>
      <point x="692" y="670" type="line"/>
      <point x="505" y="670" type="line"/>
      <point x="505" y="345" type="line"/>
      <point x="146" y="680" type="line"/>
      <point x="80" y="680" type="line"/>
      <point x="80" y="0" type="line"/>
      <point x="267" y="0" type="line"/>
      <point x="267" y="319" type="line"/>
      <point x="626" y="-10" type="line"/>
      <point x="692" y="-10" type="line"/>
    </contour>
    <contour>
      <point x="386" y="0" type="move" name="bottom"/>
    </contour>
    <contour>
      <point x="386" y="670" type="move" name="top"/>
    </contour>
  </outline>
</glyph>
<glyph name="O" format="1">
  <advance width="776"/>
  <unicode hex="004F"/>
  <outline>
    <contour>
      <point x="206" y="685"/>
      <point x="40" y="557"/>
      <point x="40" y="335" type="curve" smooth="yes"/>
      <point x="40" y="113"/>
      <point x="206" y="-15"/>
      <point x="388" y="-15" type="curve" smooth="yes"/>
      <point x="570" y="-15"/>
      <point x="736" y="113"/>
      <point x="736" y="335" type="curve" smooth="yes"/>
      <point x="736" y="557"/>
      <point x="570" y="685"/>
      <point x="388" y="685" type="curve" smooth="yes"/>
    </contour>
    <contour>
      <point x="478" y="510"/>
      <point x="544" y="435"/>
      <point x="544" y="335" type="curve" smooth="yes"/>
      <point x="544" y="235"/>
      <point x="478" y="160"/>
      <point x="388" y="160" type="curve" smooth="yes"/>
      <point x="298" y="160"/>
      <point x="232" y="235"/>
      <point x="232" y="335" type="curve" smooth="yes"/>
      <point x="232" y="435"/>
      <point x="298" y="510"/>
      <point x="388" y="510" type="curve" smooth="yes"/>
    </contour>
    <contour>
      <point x="388" y="670" type="move" name="top"/>
    </contour>
  </outline>
</glyph>
<glyph name="P" format="1">
  <advance width="660"/>
  <unicode hex="0050"/>
  <outline>
    <contour>
      <point x="357" y="670" type="curve" smooth="yes"/>
      <point x="70" y="670" type="line"/>
      <point x="70" y="0" type="line"/>
      <point x="257" y="0" type="line"/>
      <point x="257" y="495" type="line"/>
      <point x="335" y="495" type="line" smooth="yes"/>
      <point x="394" y="495"/>
      <point x="438" y="472"/>
      <point x="438" y="397" type="curve" smooth="yes"/>
      <point x="438" y="339"/>
      <point x="394" y="296"/>
      <point x="335" y="296" type="curve" smooth="yes"/>
      <point x="296" y="296"/>
      <point x="261" y="306"/>
      <point x="235" y="318" type="curve"/>
      <point x="235" y="171" type="line"/>
      <point x="265" y="150"/>
      <point x="312" y="141"/>
      <point x="377" y="141" type="curve" smooth="yes"/>
      <point x="507" y="141"/>
      <point x="630" y="242"/>
      <point x="630" y="397" type="curve" smooth="yes"/>
      <point x="630" y="575"/>
      <point x="492" y="670"/>
    </contour>
  </outline>
</glyph>
<glyph name="Q" format="1">
  <advance width="815"/>
  <unicode hex="0051"/>
  <outline>
    <contour>
      <point x="206" y="685"/>
      <point x="40" y="557"/>
      <point x="40" y="335" type="curve" smooth="yes"/>
      <point x="40" y="113"/>
      <point x="206" y="-15"/>
      <point x="388" y="-15" type="curve" smooth="yes"/>
      <point x="570" y="-15"/>
      <point x="736" y="113"/>
      <point x="736" y="335" type="curve" smooth="yes"/>
      <point x="736" y="557"/>
      <point x="570" y="685"/>
      <point x="388" y="685" type="curve" smooth="yes"/>
    </contour>
    <contour>
      <point x="388" y="-15" type="line"/>
      <point x="480" y="-122"/>
      <point x="634" y="-171"/>
      <point x="755" y="-171" type="curve"/>
      <point x="755" y="-15" type="line"/>
      <point x="675" y="-15"/>
      <point x="596" y="-13"/>
      <point x="538" y="23" type="curve"/>
    </contour>
    <contour>
      <point x="478" y="510"/>
      <point x="544" y="435"/>
      <point x="544" y="335" type="curve" smooth="yes"/>
      <point x="544" y="235"/>
      <point x="478" y="160"/>
      <point x="388" y="160" type="curve" smooth="yes"/>
      <point x="298" y="160"/>
      <point x="232" y="235"/>
      <point x="232" y="335" type="curve" smooth="yes"/>
      <point x="232" y="435"/>
      <point x="298" y="510"/>
      <point x="388" y="510" type="curve" smooth="yes"/>
    </contour>
  </outline>
</glyph>
<glyph name="R" format="1">
  <advance width="698"/>
  <unicode hex="0052"/>
  <outline>
    <contour>
      <point x="90" y="670" type="line"/>
      <point x="90" y="0" type="line"/>
      <point x="277" y="0" type="line"/>
      <point x="277" y="495" type="line"/>
      <point x="355" y="495" type="line" smooth="yes"/>
      <point x="414" y="495"/>
      <point x="458" y="482"/>
      <point x="458" y="427" type="curve" smooth="yes"/>
      <point x="458" y="379"/>
      <point x="414" y="356"/>
      <point x="355" y="356" type="curve" smooth="yes"/>
      <point x="316" y="356"/>
      <point x="281" y="367"/>
      <point x="255" y="379" type="curve"/>
      <point x="255" y="284" type="line"/>
      <point x="285" y="278"/>
      <point x="392" y="237"/>
      <point x="427" y="237" type="curve" smooth="yes"/>
      <point x="550" y="237"/>
      <point x="650" y="312"/>
      <point x="650" y="437" type="curve" smooth="yes"/>
      <point x="650" y="595"/>
      <point x="512" y="670"/>
      <point x="377" y="670" type="curve" smooth="yes"/>
    </contour>
    <contour>
      <point x="265" y="284" type="line"/>
      <point x="460" y="0" type="line"/>
      <point x="688" y="0" type="line"/>
      <point x="433" y="333" type="line"/>
    </contour>
    <contour>
      <point x="319" y="670" type="move" name="top"/>
    </contour>
    <contour>
      <point x="359" y="0" type="move" name="bottom"/>
    </contour>
  </outline>
</glyph>
<glyph name="S" format="1">
  <advance width="573"/>
  <unicode hex="0053"/>
  <outline>
    <contour>
      <point x="293" y="685" type="curve" smooth="yes"/>
      <point x="162" y="685"/>
      <point x="40" y="608"/>
      <point x="40" y="467" type="curve" smooth="yes"/>
      <point x="40" y="386"/>
      <point x="69" y="310"/>
      <point x="182" y="274" type="curve" smooth="yes"/>
      <point x="277" y="244" type="line" smooth="yes"/>
      <point x="313" y="233"/>
      <point x="336" y="215"/>
      <point x="336" y="195" type="curve" smooth="yes"/>
      <point x="336" y="167"/>
      <point x="314" y="147"/>
      <point x="268" y="147" type="curve" smooth="yes"/>
      <point x="193" y="147"/>
      <point x="107" y="181"/>
      <point x="43" y="229" type="curve"/>
      <point x="43" y="58" type="line"/>
      <point x="102" y="16"/>
      <point x="185" y="-15"/>
      <point x="265" y="-15" type="curve" smooth="yes"/>
      <point x="420" y="-15"/>
      <point x="543" y="77"/>
      <point x="543" y="205" type="curve" smooth="yes"/>
      <point x="543" y="277"/>
      <point x="502" y="335"/>
      <point x="405" y="373" type="curve" smooth="yes"/>
      <point x="337" y="400" type="line" smooth="yes"/>
      <point x="281" y="422"/>
      <point x="237" y="437"/>
      <point x="237" y="470" type="curve" smooth="yes"/>
      <point x="237" y="501"/>
      <point x="264" y="523"/>
      <point x="308" y="523" type="curve" smooth="yes"/>
      <point x="384" y="523"/>
      <point x="445" y="494"/>
      <point x="502" y="461" type="curve"/>
      <point x="502" y="632" type="line"/>
      <point x="455" y="664"/>
      <point x="371" y="685"/>
    </contour>
    <contour>
      <point x="287" y="0" type="move" name="bottom"/>
    </contour>
    <contour>
      <point x="294" y="670" type="move" name="top"/>
    </contour>
  </outline>
</glyph>
<glyph name="T" format="1">
  <advance width="621"/>
  <unicode hex="0054"/>
  <outline>
    <contour>
      <point x="404" y="670" type="line"/>
      <point x="217" y="670" type="line"/>
      <point x="217" y="3" type="line"/>
      <point x="404" y="3" type="line"/>
    </contour>
    <contour>
      <point x="586" y="670" type="line"/>
      <point x="35" y="670" type="line"/>
      <point x="35" y="515" type="line"/>
      <point x="586" y="515" type="line"/>
    </contour>
    <contour>
      <point x="329" y="0" type="move" name="bottom"/>
    </contour>
    <contour>
      <point x="311" y="335" type="move" name="center"/>
    </contour>
    <contour>
      <point x="311" y="670" type="move" name="top"/>
    </contour>
  </outline>
</glyph>
<glyph name="U" format="1">
  <advance width="746"/>
  <unicode hex="0055"/>
  <outline>
    <contour>
      <point x="676" y="672" type="line"/>
      <point x="489" y="672" type="line"/>
      <point x="489" y="278" type="line" smooth="yes"/>
      <point x="489" y="209"/>
      <point x="453" y="161"/>
      <point x="373" y="160" type="curve" smooth="yes"/>
      <point x="293" y="159"/>
      <point x="257" y="209"/>
      <point x="257" y="278" type="curve" smooth="yes"/>
      <point x="257" y="672" type="line"/>
      <point x="70" y="672" type="line"/>
      <point x="70" y="265" type="line" smooth="yes"/>
      <point x="70" y="90"/>
      <point x="206" y="-15"/>
      <point x="373" y="-15" type="curve" smooth="yes"/>
      <point x="540" y="-15"/>
      <point x="676" y="90"/>
      <point x="676" y="265" type="curve" smooth="yes"/>
    </contour>
    <contour>
      <point x="483" y="10" type="move" name="ogonek"/>
    </contour>
    <contour>
      <point x="373" y="670" type="move" name="top"/>
    </contour>
  </outline>
</glyph>
<glyph name="V" format="1">
  <advance width="734"/>
  <unicode hex="0056"/>
  <outline>
    <contour>
      <point x="506" y="670" type="line"/>
      <point x="367" y="302" type="line"/>
      <point x="228" y="670" type="line"/>
      <point x="10" y="670" type="line"/>
      <point x="320" y="-10" type="line"/>
      <point x="414" y="-10" type="line"/>
      <point x="724" y="670" type="line"/>
    </contour>
    <contour>
      <point x="605" y="10" type="move" name="ogonek"/>
    </contour>
    <contour>
      <point x="334" y="670" type="move" name="top"/>
    </contour>
  </outline>
</glyph>
<glyph name="W" format="1">
  <advance width="974"/>
  <unicode hex="0057"/>
  <outline>
    <contour>
      <point x="746" y="670" type="line"/>
      <point x="657" y="322" type="line"/>
      <point x="551" y="670" type="line"/>
      <point x="423" y="670" type="line"/>
      <point x="319" y="322" type="line"/>
      <point x="228" y="670" type="line"/>
      <point x="10" y="670" type="line"/>
      <point x="230" y="0" type="line"/>
      <point x="371" y="0" type="line"/>
      <point x="488" y="355" type="line"/>
      <point x="605" y="0" type="line"/>
      <point x="746" y="0" type="line"/>
      <point x="964" y="670" type="line"/>
    </contour>
    <contour>
      <point x="487" y="670" type="move" name="top"/>
    </contour>
  </outline>
</glyph>
<glyph name="X" format="1">
  <advance width="736"/>
  <unicode hex="0058"/>
  <outline>
    <contour>
      <point x="721" y="670" type="line"/>
      <point x="491" y="670" type="line"/>
      <point x="378" y="467" type="line"/>
      <point x="245" y="670" type="line"/>
      <point x="15" y="670" type="line"/>
      <point x="250" y="331" type="line"/>
      <point x="15" y="0" type="line"/>
      <point x="245" y="0" type="line"/>
      <point x="368" y="200" type="line"/>
      <point x="491" y="0" type="line"/>
      <point x="721" y="0" type="line"/>
      <point x="496" y="346" type="line"/>
    </contour>
  </outline>
</glyph>
<glyph name="Y" format="1">
  <advance width="741"/>
  <unicode hex="0059"/>
  <outline>
    <contour>
      <point x="726" y="670" type="line"/>
      <point x="508" y="670" type="line"/>
      <point x="371" y="409" type="line"/>
      <point x="233" y="670" type="line"/>
      <point x="15" y="670" type="line"/>
      <point x="315" y="167" type="line"/>
      <point x="426" y="167" type="line"/>
    </contour>
    <contour>
      <point x="464" y="254" type="line"/>
      <point x="277" y="254" type="line"/>
      <point x="277" y="0" type="line"/>
      <point x="464" y="0" type="line"/>
    </contour>
    <contour>
      <point x="371" y="670" type="move" name="top"/>
    </contour>
  </outline>
</glyph>
<glyph name="Z" format="1">
  <advance width="709"/>
  <unicode hex="005A"/>
  <outline>
    <contour>
      <point x="82" y="670" type="line"/>
      <point x="82" y="505" type="line"/>
      <point x="344" y="505" type="line"/>
      <point x="60" y="36" type="line"/>
      <point x="60" y="0" type="line"/>
      <point x="649" y="0" type="line"/>
      <point x="649" y="165" type="line"/>
      <point x="364" y="165" type="line"/>
      <point x="649" y="634" type="line"/>
      <point x="649" y="670" type="line"/>
    </contour>
    <contour>
      <point x="361" y="670" type="move" name="top"/>
    </contour>
  </outline>
</glyph>
<glyph name="bracketleft" format="1">
  <advance width="419"/>
  <unicode hex="005B"/>
  <outline>
    <contour>
      <point x="389" y="690" type="line"/>
      <point x="70" y="690" type="line"/>
      <point x="70" y="-200" type="line"/>
      <point x="389" y="-200" type="line"/>
      <point x="389" y="-70" type="line"/>
      <point x="227" y="-70" type="line"/>
      <point x="227" y="560" type="line"/>
      <point x="389" y="560" type="line"/>
    </contour>
  </outline>
</glyph>
<glyph name="backslash" format="1">
  <advance width="414"/>
  <unicode hex="005C"/>
  <outline>
    <contour>
      <point x="116" y="670" type="line"/>
      <point x="-15" y="670" type="line"/>
      <point x="301" y="-200" type="line"/>
      <point x="429" y="-200" type="line"/>
    </contour>
  </outline>
</glyph>
<glyph name="asciicircum" format="1">
  <advance width="600"/>
  <unicode hex="005E"/>
  <outline>
    <contour>
      <point x="251" y="670" type="line"/>
      <point x="40" y="330" type="line"/>
      <point x="208" y="330" type="line"/>
      <point x="295" y="478" type="line"/>
      <point x="395" y="330" type="line"/>
      <point x="563" y="330" type="line"/>
      <point x="342" y="670" type="line"/>
    </contour>
  </outline>
</glyph>
<glyph name="grave" format="1">
  <advance width="414"/>
  <unicode hex="0060"/>
  <outline>
    <contour>
      <point x="80" y="710" type="line"/>
      <point x="212" y="560" type="line"/>
      <point x="334" y="560" type="line"/>
      <point x="234" y="710" type="line"/>
    </contour>
    <contour>
      <point x="270" y="510" type="move" name="_top"/>
    </contour>
  </outline>
</glyph>
<glyph name="b" format="1">
  <advance width="649"/>
  <unicode hex="0062"/>
  <outline>
    <contour>
      <point x="331" y="525"/>
      <point x="275" y="499"/>
      <point x="242" y="463" type="curve"/>
      <point x="242" y="720" type="line"/>
      <point x="70" y="720" type="line"/>
      <point x="70" y="0" type="line"/>
      <point x="242" y="0" type="line"/>
      <point x="242" y="85" type="line"/>
      <point x="267" y="29"/>
      <point x="321" y="-15"/>
      <point x="394" y="-15" type="curve" smooth="yes"/>
      <point x="508" y="-15"/>
      <point x="614" y="71"/>
      <point x="614" y="256" type="curve" smooth="yes"/>
      <point x="614" y="428"/>
      <point x="508" y="525"/>
      <point x="384" y="525" type="curve" smooth="yes"/>
    </contour>
    <contour>
      <point x="398" y="357"/>
      <point x="434" y="310"/>
      <point x="434" y="256" type="curve" smooth="yes"/>
      <point x="434" y="201"/>
      <point x="398" y="159"/>
      <point x="343" y="159" type="curve" smooth="yes"/>
      <point x="300" y="159"/>
      <point x="242" y="192"/>
      <point x="242" y="266" type="curve" smooth="yes"/>
      <point x="242" y="315" type="line"/>
      <point x="272" y="339"/>
      <point x="310" y="357"/>
      <point x="348" y="357" type="curve" smooth="yes"/>
    </contour>
  </outline>
</glyph>
<glyph name="c" format="1">
  <advance width="472"/>
  <unicode hex="0063"/>
  <outline>
    <contour>
      <point x="152" y="525"/>
      <point x="35" y="394"/>
      <point x="35" y="252" type="curve" smooth="yes"/>
      <point x="35" y="110"/>
      <point x="152" y="-15"/>
      <point x="304" y="-15" type="curve" smooth="yes"/>
      <point x="382" y="-15"/>
      <point x="417" y="10"/>
      <point x="452" y="37" type="curve"/>
      <point x="452" y="187" type="line"/>
      <point x="421" y="165"/>
      <point x="384" y="150"/>
      <point x="327" y="150" type="curve" smooth="yes"/>
      <point x="270" y="150"/>
      <point x="220" y="185"/>
      <point x="220" y="252" type="curve" smooth="yes"/>
      <point x="220" y="319"/>
      <point x="280" y="355"/>
      <point x="327" y="355" type="curve" smooth="yes"/>
      <point x="384" y="355"/>
      <point x="421" y="340"/>
      <point x="452" y="318" type="curve"/>
      <point x="452" y="468" type="line"/>
      <point x="417" y="495"/>
      <point x="382" y="525"/>
      <point x="304" y="525" type="curve" smooth="yes"/>
    </contour>
    <contour>
      <point x="300" y="510" type="move" name="top"/>
    </contour>
    <contour>
      <point x="312" y="0" type="move" name="bottom"/>
    </contour>
  </outline>
</glyph>
<glyph name="d" format="1">
  <advance width="649"/>
  <unicode hex="0064"/>
  <outline>
    <contour>
      <point x="407" y="720" type="line"/>
      <point x="407" y="463" type="line"/>
      <point x="374" y="499"/>
      <point x="318" y="525"/>
      <point x="265" y="525" type="curve" smooth="yes"/>
      <point x="141" y="525"/>
      <point x="35" y="428"/>
      <point x="35" y="256" type="curve" smooth="yes"/>
      <point x="35" y="71"/>
      <point x="141" y="-15"/>
      <point x="255" y="-15" type="curve" smooth="yes"/>
      <point x="328" y="-15"/>
      <point x="382" y="29"/>
      <point x="407" y="85" type="curve"/>
      <point x="407" y="0" type="line"/>
      <point x="579" y="0" type="line"/>
      <point x="579" y="720" type="line"/>
    </contour>
    <contour>
      <point x="339" y="357"/>
      <point x="377" y="339"/>
      <point x="407" y="315" type="curve"/>
      <point x="407" y="266" type="line" smooth="yes"/>
      <point x="407" y="192"/>
      <point x="349" y="159"/>
      <point x="306" y="159" type="curve" smooth="yes"/>
      <point x="251" y="159"/>
      <point x="215" y="201"/>
      <point x="215" y="256" type="curve" smooth="yes"/>
      <point x="215" y="310"/>
      <point x="251" y="357"/>
      <point x="301" y="357" type="curve" smooth="yes"/>
    </contour>
  </outline>
</glyph>
<glyph name="e" format="1">
  <advance width="578"/>
  <unicode hex="0065"/>
  <outline>
    <contour>
      <point x="152" y="525"/>
      <point x="35" y="399"/>
      <point x="35" y="247" type="curve" smooth="yes"/>
      <point x="35" y="85"/>
      <point x="171" y="-15"/>
      <point x="316" y="-15" type="curve" smooth="yes"/>
      <point x="392" y="-15"/>
      <point x="449" y="0"/>
      <point x="484" y="22" type="curve"/>
      <point x="484" y="169" type="line"/>
      <point x="456" y="153"/>
      <point x="403" y="135"/>
      <point x="326" y="135" type="curve" smooth="yes"/>
      <point x="255" y="135"/>
      <point x="200" y="170"/>
      <point x="200" y="247" type="curve" smooth="yes"/>
      <point x="200" y="340"/>
      <point x="241" y="383"/>
      <point x="301" y="383" type="curve" smooth="yes"/>
      <point x="346" y="383"/>
      <point x="390" y="354"/>
      <point x="390" y="306" type="curve"/>
      <point x="192" y="306" type="line"/>
      <point x="192" y="210" type="line"/>
      <point x="553" y="210" type="line"/>
      <point x="553" y="267" type="line" smooth="yes"/>
      <point x="553" y="424"/>
      <point x="450" y="525"/>
      <point x="306" y="525" type="curve" smooth="yes"/>
    </contour>
    <contour>
      <point x="443" y="10" type="move" name="ogonek"/>
    </contour>
    <contour>
      <point x="281" y="0" type="move" name="bottom"/>
    </contour>
    <contour>
      <point x="311" y="510" type="move" name="top"/>
    </contour>
  </outline>
</glyph>
<glyph name="f" format="1">
  <advance width="433"/>
  <unicode hex="0066"/>
  <outline>
    <contour>
      <point x="200" y="735"/>
      <point x="116" y="651"/>
      <point x="116" y="536" type="curve" smooth="yes"/>
      <point x="116" y="0" type="line"/>
      <point x="288" y="0" type="line"/>
      <point x="288" y="529" type="line" smooth="yes"/>
      <point x="288" y="567"/>
      <point x="322" y="587"/>
      <point x="353" y="587" type="curve" smooth="yes"/>
      <point x="383" y="587"/>
      <point x="408" y="581"/>
      <point x="428" y="570" type="curve"/>
      <point x="428" y="710" type="line"/>
      <point x="401" y="725"/>
      <point x="366" y="735"/>
      <point x="315" y="735" type="curve" smooth="yes"/>
    </contour>
    <contour>
      <point x="40" y="510" type="line"/>
      <point x="40" y="375" type="line"/>
      <point x="404" y="375" type="line"/>
      <point x="404" y="510" type="line"/>
    </contour>
  </outline>
</glyph>
<glyph name="g" format="1">
  <advance width="649"/>
  <unicode hex="0067"/>
  <outline>
    <contour>
      <point x="141" y="525"/>
      <point x="35" y="428"/>
      <point x="35" y="256" type="curve" smooth="yes"/>
      <point x="35" y="71"/>
      <point x="141" y="-15"/>
      <point x="255" y="-15" type="curve" smooth="yes"/>
      <point x="328" y="-15"/>
      <point x="382" y="29"/>
      <point x="407" y="85" type="curve"/>
      <point x="407" y="14" type="line" smooth="yes"/>
      <point x="407" y="-45"/>
      <point x="355" y="-100"/>
      <point x="272" y="-100" type="curve" smooth="yes"/>
      <point x="187" y="-100"/>
      <point x="146" y="-73"/>
      <point x="83" y="-37" type="curve"/>
      <point x="83" y="-189" type="line"/>
      <point x="145" y="-231"/>
      <point x="203" y="-255"/>
      <point x="288" y="-255" type="curve" smooth="yes"/>
      <point x="445" y="-255"/>
      <point x="579" y="-147"/>
      <point x="579" y="15" type="curve" smooth="yes"/>
      <point x="579" y="510" type="line"/>
      <point x="407" y="510" type="line"/>
      <point x="407" y="463" type="line"/>
      <point x="374" y="499"/>
      <point x="318" y="525"/>
      <point x="265" y="525" type="curve" smooth="yes"/>
    </contour>
    <contour>
      <point x="339" y="357"/>
      <point x="377" y="339"/>
      <point x="407" y="315" type="curve"/>
      <point x="407" y="266" type="line" smooth="yes"/>
      <point x="407" y="192"/>
      <point x="349" y="159"/>
      <point x="306" y="159" type="curve" smooth="yes"/>
      <point x="251" y="159"/>
      <point x="215" y="201"/>
      <point x="215" y="256" type="curve" smooth="yes"/>
      <point x="215" y="310"/>
      <point x="251" y="357"/>
      <point x="301" y="357" type="curve" smooth="yes"/>
    </contour>
    <contour>
      <point x="320" y="510" type="move" name="top"/>
    </contour>
  </outline>
</glyph>
<glyph name="h" format="1">
  <advance width="628"/>
  <unicode hex="0068"/>
  <outline>
    <contour>
      <point x="242" y="720" type="line"/>
      <point x="70" y="720" type="line"/>
      <point x="70" y="0" type="line"/>
      <point x="242" y="0" type="line"/>
    </contour>
    <contour>
      <point x="386" y="525" type="curve" smooth="yes"/>
      <point x="318" y="525"/>
      <point x="274" y="488"/>
      <point x="242" y="444" type="curve"/>
      <point x="242" y="308" type="line"/>
      <point x="260" y="335"/>
      <point x="285" y="357"/>
      <point x="322" y="357" type="curve" smooth="yes"/>
      <point x="357" y="357"/>
      <point x="390" y="339"/>
      <point x="390" y="288" type="curve" smooth="yes"/>
      <point x="391" y="0" type="line"/>
      <point x="563" y="0" type="line"/>
      <point x="563" y="315" type="line" smooth="yes"/>
      <point x="563" y="453"/>
      <point x="490" y="525"/>
    </contour>
  </outline>
</glyph>
<glyph name="i" format="1">
  <advance width="354"/>
  <unicode hex="0069"/>
  <outline>
    <contour>
      <point x="145" y="796"/>
      <point x="96" y="750"/>
      <point x="96" y="692" type="curve" smooth="yes"/>
      <point x="96" y="635"/>
      <point x="145" y="588"/>
      <point x="203" y="588" type="curve" smooth="yes"/>
      <point x="260" y="588"/>
      <point x="311" y="635"/>
      <point x="311" y="692" type="curve" smooth="yes"/>
      <point x="311" y="750"/>
      <point x="260" y="796"/>
      <point x="203" y="796" type="curve" smooth="yes"/>
    </contour>
    <component base="idotless" xOffset="-5"/>
    <contour>
      <point x="295" y="0" type="move" name="ogonek"/>
    </contour>
    <contour>
      <point x="182" y="510" type="move" name="top"/>
    </contour>
  </outline>
</glyph>
<glyph name="k" format="1">
  <advance width="627"/>
  <unicode hex="006B"/>
  <outline>
    <contour>
      <point x="405" y="510" type="line"/>
      <point x="218" y="275" type="line"/>
      <point x="218" y="88" type="line"/>
      <point x="613" y="510" type="line"/>
    </contour>
    <contour>
      <point x="70" y="720" type="line"/>
      <point x="70" y="0" type="line"/>
      <point x="242" y="0" type="line"/>
      <point x="242" y="720" type="line"/>
    </contour>
    <contour>
      <point x="271" y="214" type="line"/>
      <point x="405" y="0" type="line"/>
      <point x="622" y="0" type="line"/>
      <point x="377" y="331" type="line"/>
    </contour>
    <contour>
      <point x="328" y="0" type="move" name="bottom"/>
    </contour>
  </outline>
</glyph>
<glyph name="l" format="1">
  <advance width="312"/>
  <unicode hex="006C"/>
  <outline>
    <contour>
      <point x="70" y="720" type="line"/>
      <point x="70" y="0" type="line"/>
      <point x="242" y="0" type="line"/>
      <point x="242" y="720" type="line"/>
    </contour>
    <contour>
      <point x="207" y="720" type="move" name="top"/>
    </contour>
    <contour>
      <point x="156" y="0" type="move" name="bottom"/>
    </contour>
    <contour>
      <point x="272" y="510" type="move" name="topright"/>
    </contour>
  </outline>
</glyph>
<glyph name="m" format="1">
  <advance width="919"/>
  <unicode hex="006D"/>
  <outline>
    <contour>
      <point x="609" y="525"/>
      <point x="553" y="482"/>
      <point x="521" y="426" type="curve"/>
      <point x="546" y="308" type="line"/>
      <point x="564" y="335"/>
      <point x="585" y="357"/>
      <point x="616" y="357" type="curve" smooth="yes"/>
      <point x="651" y="357"/>
      <point x="681" y="339"/>
      <point x="681" y="288" type="curve" smooth="yes"/>
      <point x="682" y="0" type="line"/>
      <point x="854" y="0" type="line"/>
      <point x="854" y="315" type="line" smooth="yes"/>
      <point x="854" y="453"/>
      <point x="781" y="525"/>
      <point x="677" y="525" type="curve" smooth="yes"/>
    </contour>
    <contour>
      <point x="70" y="510" type="line"/>
      <point x="70" y="0" type="line"/>
      <point x="242" y="0" type="line"/>
      <point x="242" y="510" type="line"/>
    </contour>
    <contour>
      <point x="303" y="525"/>
      <point x="274" y="488"/>
      <point x="242" y="444" type="curve"/>
      <point x="242" y="308" type="line"/>
      <point x="260" y="335"/>
      <point x="279" y="357"/>
      <point x="310" y="357" type="curve" smooth="yes"/>
      <point x="345" y="357"/>
      <point x="375" y="339"/>
      <point x="375" y="288" type="curve" smooth="yes"/>
      <point x="376" y="0" type="line"/>
      <point x="548" y="0" type="line"/>
      <point x="548" y="328" type="line"/>
      <point x="537" y="399" type="line"/>
      <point x="513" y="482"/>
      <point x="451" y="525"/>
      <point x="371" y="525" type="curve" smooth="yes"/>
    </contour>
  </outline>
</glyph>
<glyph name="o" format="1">
  <advance width="630"/>
  <unicode hex="006F"/>
  <outline>
    <contour>
      <point x="315" y="525" type="curve" smooth="yes"/>
      <point x="173" y="525"/>
      <point x="35" y="412"/>
      <point x="35" y="255" type="curve" smooth="yes"/>
      <point x="35" y="98"/>
      <point x="173" y="-15"/>
      <point x="315" y="-15" type="curve" smooth="yes"/>
      <point x="457" y="-15"/>
      <point x="595" y="98"/>
      <point x="595" y="255" type="curve" smooth="yes"/>
      <point x="595" y="412"/>
      <point x="457" y="525"/>
    </contour>
    <contour>
      <point x="315" y="360" type="curve" smooth="yes"/>
      <point x="352" y="360"/>
      <point x="410" y="342"/>
      <point x="410" y="255" type="curve" smooth="yes"/>
      <point x="410" y="168"/>
      <point x="352" y="150"/>
      <point x="315" y="150" type="curve" smooth="yes"/>
      <point x="278" y="150"/>
      <point x="220" y="168"/>
      <point x="220" y="255" type="curve" smooth="yes"/>
      <point x="220" y="342"/>
      <point x="278" y="360"/>
    </contour>
    <contour>
      <point x="315" y="510" type="move" name="top"/>
    </contour>
  </outline>
</glyph>
<glyph name="p" format="1">
  <advance width="649"/>
  <unicode hex="0070"/>
  <outline>
    <contour>
      <point x="394" y="525" type="curve" smooth="yes"/>
      <point x="321" y="525"/>
      <point x="267" y="481"/>
      <point x="242" y="425" type="curve"/>
      <point x="242" y="510" type="line"/>
      <point x="70" y="510" type="line"/>
      <point x="70" y="-240" type="line"/>
      <point x="242" y="-240" type="line"/>
      <point x="242" y="47" type="line"/>
      <point x="275" y="11"/>
      <point x="331" y="-15"/>
      <point x="384" y="-15" type="curve" smooth="yes"/>
      <point x="508" y="-15"/>
      <point x="614" y="82"/>
      <point x="614" y="254" type="curve" smooth="yes"/>
      <point x="614" y="439"/>
      <point x="508" y="525"/>
    </contour>
    <contour>
      <point x="343" y="351" type="curve" smooth="yes"/>
      <point x="398" y="351"/>
      <point x="434" y="309"/>
      <point x="434" y="254" type="curve" smooth="yes"/>
      <point x="434" y="200"/>
      <point x="398" y="153"/>
      <point x="348" y="153" type="curve" smooth="yes"/>
      <point x="310" y="153"/>
      <point x="272" y="171"/>
      <point x="242" y="195" type="curve"/>
      <point x="242" y="244" type="line" smooth="yes"/>
      <point x="242" y="318"/>
      <point x="300" y="351"/>
    </contour>
  </outline>
</glyph>
<glyph name="r" format="1">
  <advance width="451"/>
  <unicode hex="0072"/>
  <outline>
    <contour>
      <point x="70" y="510" type="line"/>
      <point x="70" y="0" type="line"/>
      <point x="242" y="0" type="line"/>
      <point x="242" y="510" type="line"/>
    </contour>
    <contour>
      <point x="431" y="505" type="line"/>
      <point x="414" y="514"/>
      <point x="395" y="520"/>
      <point x="373" y="520" type="curve" smooth="yes"/>
      <point x="309" y="520"/>
      <point x="274" y="473"/>
      <point x="242" y="419" type="curve"/>
      <point x="242" y="262" type="line"/>
      <point x="265" y="307"/>
      <point x="301" y="338"/>
      <point x="348" y="338" type="curve" smooth="yes"/>
      <point x="383" y="338"/>
      <point x="406" y="329"/>
      <point x="431" y="314" type="curve"/>
    </contour>
    <contour>
      <point x="246" y="510" type="move" name="top"/>
    </contour>
    <contour>
      <point x="226" y="0" type="move" name="bottom"/>
    </contour>
  </outline>
</glyph>
<glyph name="s" format="1">
  <advance width="456"/>
  <unicode hex="0073"/>
  <outline>
    <contour>
      <point x="127" y="525"/>
      <point x="35" y="459"/>
      <point x="35" y="354" type="curve" smooth="yes"/>
      <point x="35" y="283"/>
      <point x="68" y="234"/>
      <point x="143" y="211" type="curve" smooth="yes"/>
      <point x="194" y="195" type="line" smooth="yes"/>
      <point x="234" y="182"/>
      <point x="256" y="175"/>
      <point x="256" y="156" type="curve" smooth="yes"/>
      <point x="256" y="132"/>
      <point x="238" y="124"/>
      <point x="200" y="124" type="curve" smooth="yes"/>
      <point x="152" y="124"/>
      <point x="85" y="146"/>
      <point x="37" y="176" type="curve"/>
      <point x="37" y="42" type="line"/>
      <point x="83" y="10"/>
      <point x="151" y="-15"/>
      <point x="227" y="-15" type="curve" smooth="yes"/>
      <point x="336" y="-15"/>
      <point x="436" y="55"/>
      <point x="436" y="155" type="curve" smooth="yes"/>
      <point x="436" y="228"/>
      <point x="393" y="275"/>
      <point x="303" y="298" type="curve" smooth="yes"/>
      <point x="272" y="306" type="line" smooth="yes"/>
      <point x="229" y="317"/>
      <point x="218" y="323"/>
      <point x="218" y="342" type="curve" smooth="yes"/>
      <point x="218" y="369"/>
      <point x="247" y="381"/>
      <point x="279" y="381" type="curve" smooth="yes"/>
      <point x="329" y="381"/>
      <point x="374" y="357"/>
      <point x="409" y="336" type="curve"/>
      <point x="409" y="471" type="line"/>
      <point x="374" y="504"/>
      <point x="314" y="525"/>
      <point x="248" y="525" type="curve" smooth="yes"/>
    </contour>
    <contour>
      <point x="228" y="510" type="move" name="top"/>
    </contour>
    <contour>
      <point x="228" y="0" type="move" name="bottom"/>
    </contour>
  </outline>
</glyph>
<glyph name="t" format="1">
  <advance width="483"/>
  <unicode hex="0074"/>
  <outline>
    <contour>
      <point x="206" y="660" type="line"/>
      <point x="176" y="553"/>
      <point x="105" y="497"/>
      <point x="40" y="480" type="curve"/>
      <point x="40" y="375" type="line"/>
      <point x="126" y="375" type="line"/>
      <point x="126" y="169" type="line" smooth="yes"/>
      <point x="126" y="53"/>
      <point x="208" y="-15"/>
      <point x="303" y="-15" type="curve" smooth="yes"/>
      <point x="369" y="-15"/>
      <point x="416" y="11"/>
      <point x="438" y="40" type="curve"/>
      <point x="438" y="174" type="line"/>
      <point x="413" y="159"/>
      <point x="389" y="152"/>
      <point x="357" y="152" type="curve" smooth="yes"/>
      <point x="320" y="152"/>
      <point x="298" y="183"/>
      <point x="298" y="232" type="curve" smooth="yes"/>
      <point x="298" y="375" type="line"/>
      <point x="432" y="375" type="line"/>
      <point x="432" y="510" type="line"/>
      <point x="298" y="510" type="line"/>
      <point x="298" y="660" type="line"/>
    </contour>
    <contour>
      <point x="244" y="255" type="move" name="center"/>
    </contour>
    <contour>
      <point x="310" y="0" type="move" name="bottom"/>
    </contour>
    <contour>
      <point x="448" y="510" type="move" name="topright"/>
    </contour>
  </outline>
</glyph>
<glyph name="u" format="1">
  <advance width="618"/>
  <unicode hex="0075"/>
  <outline>
    <contour>
      <point x="381" y="510" type="line"/>
      <point x="380" y="250" type="line" smooth="yes"/>
      <point x="380" y="180"/>
      <point x="360" y="150"/>
      <point x="309" y="150" type="curve" smooth="yes"/>
      <point x="258" y="150"/>
      <point x="238" y="180"/>
      <point x="238" y="250" type="curve" smooth="yes"/>
      <point x="237" y="510" type="line"/>
      <point x="65" y="510" type="line"/>
      <point x="65" y="204" type="line" smooth="yes"/>
      <point x="65" y="66"/>
      <point x="167" y="-15"/>
      <point x="309" y="-15" type="curve" smooth="yes"/>
      <point x="451" y="-15"/>
      <point x="553" y="66"/>
      <point x="553" y="204" type="curve" smooth="yes"/>
      <point x="553" y="510" type="line"/>
    </contour>
    <contour>
      <point x="411" y="10" type="move" name="ogonek"/>
    </contour>
    <contour>
      <point x="317" y="510" type="move" name="top"/>
    </contour>
  </outline>
</glyph>
<glyph name="v" format="1">
  <advance width="611"/>
  <unicode hex="0076"/>
  <outline>
    <contour>
      <point x="408" y="510" type="line"/>
      <point x="306" y="252" type="line"/>
      <point x="203" y="510" type="line"/>
      <point x="5" y="510" type="line"/>
      <point x="251" y="0" type="line"/>
      <point x="362" y="0" type="line"/>
      <point x="606" y="510" type="line"/>
    </contour>
  </outline>
</glyph>
<glyph name="w" format="1">
  <advance width="824"/>
  <unicode hex="0077"/>
  <outline>
    <contour>
      <point x="819" y="510" type="line"/>
      <point x="641" y="510" type="line"/>
      <point x="566" y="262" type="line"/>
      <point x="480" y="510" type="line"/>
      <point x="344" y="510" type="line"/>
      <point x="258" y="262" type="line"/>
      <point x="183" y="510" type="line"/>
      <point x="5" y="510" type="line"/>
      <point x="178" y="0" type="line"/>
      <point x="313" y="0" type="line"/>
      <point x="412" y="301" type="line"/>
      <point x="511" y="0" type="line"/>
      <point x="644" y="0" type="line"/>
    </contour>
    <contour>
      <point x="403" y="510" type="move" name="top"/>
    </contour>
  </outline>
</glyph>
<glyph name="x" format="1">
  <advance width="632"/>
  <unicode hex="0078"/>
  <outline>
    <contour>
      <point x="422" y="510" type="line"/>
      <point x="316" y="368" type="line"/>
      <point x="210" y="510" type="line"/>
      <point x="15" y="510" type="line"/>
      <point x="208" y="256" type="line"/>
      <point x="5" y="0" type="line"/>
      <point x="217" y="0" type="line"/>
      <point x="316" y="141" type="line"/>
      <point x="415" y="0" type="line"/>
      <point x="627" y="0" type="line"/>
      <point x="424" y="256" type="line"/>
      <point x="617" y="510" type="line"/>
    </contour>
  </outline>
</glyph>
<glyph name="y" format="1">
  <advance width="622"/>
  <unicode hex="0079"/>
  <outline>
    <contour>
      <point x="425" y="510" type="line"/>
      <point x="280" y="150" type="line"/>
      <point x="59" y="-240" type="line"/>
      <point x="251" y="-240" type="line"/>
      <point x="617" y="510" type="line"/>
    </contour>
    <contour>
      <point x="5" y="510" type="line"/>
      <point x="250" y="-20" type="line"/>
      <point x="369" y="110" type="line"/>
      <point x="203" y="510" type="line"/>
    </contour>
    <contour>
      <point x="306" y="510" type="move" name="top"/>
    </contour>
  </outline>
</glyph>
<glyph name="z" format="1">
  <advance width="564"/>
  <unicode hex="007A"/>
  <outline>
    <contour>
      <point x="60" y="510" type="line"/>
      <point x="60" y="370" type="line"/>
      <point x="260" y="370" type="line"/>
      <point x="50" y="36" type="line"/>
      <point x="50" y="0" type="line"/>
      <point x="519" y="0" type="line"/>
      <point x="519" y="140" type="line"/>
      <point x="288" y="140" type="line"/>
      <point x="509" y="474" type="line"/>
      <point x="509" y="510" type="line"/>
    </contour>
    <contour>
      <point x="285" y="510" type="move" name="top"/>
    </contour>
  </outline>
</glyph>
<glyph name="braceleft" format="1">
  <advance width="494"/>
  <unicode hex="007B"/>
  <outline>
    <contour>
      <point x="330" y="690" type="line" smooth="yes"/>
      <point x="225" y="690"/>
      <point x="155" y="609"/>
      <point x="155" y="508" type="curve" smooth="yes"/>
      <point x="155" y="402" type="line" smooth="yes"/>
      <point x="155" y="342"/>
      <point x="143" y="320"/>
      <point x="80" y="320" type="curve"/>
      <point x="80" y="170" type="line"/>
      <point x="143" y="170"/>
      <point x="155" y="148"/>
      <point x="155" y="88" type="curve" smooth="yes"/>
      <point x="155" y="-18" type="line" smooth="yes"/>
      <point x="155" y="-119"/>
      <point x="225" y="-200"/>
      <point x="330" y="-200" type="curve" smooth="yes"/>
      <point x="454" y="-200" type="line"/>
      <point x="454" y="-70" type="line"/>
      <point x="410" y="-70" type="line" smooth="yes"/>
      <point x="324" y="-70"/>
      <point x="312" y="-19"/>
      <point x="312" y="25" type="curve" smooth="yes"/>
      <point x="312" y="150" type="line" smooth="yes"/>
      <point x="312" y="192"/>
      <point x="285" y="225"/>
      <point x="247" y="245" type="curve"/>
      <point x="285" y="265"/>
      <point x="312" y="298"/>
      <point x="312" y="340" type="curve" smooth="yes"/>
      <point x="312" y="465" type="line" smooth="yes"/>
      <point x="312" y="509"/>
      <point x="324" y="560"/>
      <point x="410" y="560" type="curve" smooth="yes"/>
      <point x="454" y="560" type="line"/>
      <point x="454" y="690" type="line"/>
    </contour>
  </outline>
</glyph>
<glyph name="bar" format="1">
  <advance width="290"/>
  <unicode hex="007C"/>
  <outline>
    <contour>
      <point x="80" y="705" type="line"/>
      <point x="80" y="-200" type="line"/>
      <point x="210" y="-200" type="line"/>
      <point x="210" y="705" type="line"/>
    </contour>
  </outline>
</glyph>
<glyph name="asciitilde" format="1">
  <advance width="614"/>
  <unicode hex="007E"/>
  <outline>
    <contour>
      <point x="432" y="446" type="line"/>
      <point x="432" y="416"/>
      <point x="417" y="390"/>
      <point x="388" y="390" type="curve" smooth="yes"/>
      <point x="338" y="390"/>
      <point x="304" y="452"/>
      <point x="216" y="452" type="curve" smooth="yes"/>
      <point x="123" y="452"/>
      <point x="60" y="377"/>
      <point x="60" y="267" type="curve"/>
      <point x="182" y="267" type="line"/>
      <point x="182" y="297"/>
      <point x="198" y="323"/>
      <point x="226" y="323" type="curve" smooth="yes"/>
      <point x="276" y="323"/>
      <point x="310" y="261"/>
      <point x="398" y="261" type="curve" smooth="yes"/>
      <point x="491" y="261"/>
      <point x="554" y="336"/>
      <point x="554" y="446" type="curve"/>
    </contour>
  </outline>
</glyph>
<glyph name="cent" format="1">
  <advance width="472"/>
  <unicode hex="00A2"/>
  <outline>
    <contour>
      <point x="263" y="580" type="line"/>
      <point x="263" y="-80" type="line"/>
      <point x="380" y="-80" type="line"/>
      <point x="380" y="580" type="line"/>
    </contour>
    <component base="c"/>
  </outline>
</glyph>
<glyph name="sterling" format="1">
  <advance width="578"/>
  <unicode hex="00A3"/>
  <outline>
    <contour>
      <point x="387" y="680" type="curve" smooth="yes"/>
      <point x="271" y="680"/>
      <point x="150" y="599"/>
      <point x="150" y="439" type="curve"/>
      <point x="150" y="234" type="line"/>
      <point x="150" y="183"/>
      <point x="112" y="149"/>
      <point x="70" y="135" type="curve"/>
      <point x="70" y="0" type="line"/>
      <point x="510" y="0" type="line"/>
      <point x="510" y="165" type="line"/>
      <point x="290" y="165" type="line"/>
      <point x="318" y="183"/>
      <point x="337" y="213"/>
      <point x="337" y="253" type="curve" smooth="yes"/>
      <point x="337" y="413" type="line" smooth="yes"/>
      <point x="337" y="471"/>
      <point x="382" y="504"/>
      <point x="421" y="505" type="curve" smooth="yes"/>
      <point x="459" y="506"/>
      <point x="494" y="491"/>
      <point x="518" y="473" type="curve"/>
      <point x="518" y="639" type="line"/>
      <point x="496" y="660"/>
      <point x="444" y="680"/>
    </contour>
    <contour>
      <point x="458" y="390" type="line"/>
      <point x="70" y="390" type="line"/>
      <point x="70" y="260" type="line"/>
      <point x="458" y="260" type="line"/>
    </contour>
  </outline>
</glyph>
<glyph name="currency" format="1">
  <advance width="526"/>
  <unicode hex="00A4"/>
  <outline>
    <contour>
      <point x="166" y="441"/>
      <point x="72" y="364"/>
      <point x="72" y="257" type="curve" smooth="yes"/>
      <point x="72" y="150"/>
      <point x="166" y="73"/>
      <point x="263" y="73" type="curve" smooth="yes"/>
      <point x="360" y="73"/>
      <point x="454" y="150"/>
      <point x="454" y="257" type="curve" smooth="yes"/>
      <point x="454" y="364"/>
      <point x="360" y="441"/>
      <point x="263" y="441" type="curve" smooth="yes"/>
    </contour>
    <contour>
      <point x="298" y="319"/>
      <point x="328" y="296"/>
      <point x="328" y="257" type="curve" smooth="yes"/>
      <point x="328" y="218"/>
      <point x="298" y="195"/>
      <point x="263" y="195" type="curve" smooth="yes"/>
      <point x="228" y="195"/>
      <point x="198" y="218"/>
      <point x="198" y="257" type="curve" smooth="yes"/>
      <point x="198" y="296"/>
      <point x="228" y="319"/>
      <point x="263" y="319" type="curve" smooth="yes"/>
    </contour>
    <contour>
      <point x="298" y="139" type="line"/>
      <point x="408" y="29" type="line"/>
      <point x="491" y="108" type="line"/>
      <point x="388" y="215" type="line"/>
    </contour>
    <contour>
      <point x="242" y="361" type="line"/>
      <point x="118" y="485" type="line"/>
      <point x="35" y="407" type="line"/>
      <point x="156" y="282" type="line"/>
    </contour>
    <contour>
      <point x="390" y="301" type="line"/>
      <point x="491" y="406" type="line"/>
      <point x="409" y="485" type="line"/>
      <point x="309" y="385" type="line"/>
    </contour>
    <contour>
      <point x="157" y="233" type="line"/>
      <point x="35" y="108" type="line"/>
      <point x="118" y="29" type="line"/>
      <point x="235" y="146" type="line"/>
    </contour>
  </outline>
</glyph>
<glyph name="yen" format="1">
  <advance width="731"/>
  <unicode hex="00A5"/>
  <outline>
    <contour>
      <point x="591" y="321" type="line"/>
      <point x="141" y="321" type="line"/>
      <point x="141" y="231" type="line"/>
      <point x="591" y="231" type="line"/>
    </contour>
    <contour>
      <point x="591" y="196" type="line"/>
      <point x="141" y="196" type="line"/>
      <point x="141" y="106" type="line"/>
      <point x="591" y="106" type="line"/>
    </contour>
    <component base="Y"/>
  </outline>
</glyph>
<glyph name="section" format="1">
  <advance width="573"/>
  <unicode hex="00A7"/>
  <outline>
    <contour>
      <point x="127" y="380" type="line"/>
      <point x="91" y="357"/>
      <point x="40" y="322"/>
      <point x="40" y="247" type="curve" smooth="yes"/>
      <point x="40" y="166"/>
      <point x="69" y="96"/>
      <point x="182" y="60" type="curve" smooth="yes"/>
      <point x="277" y="30" type="line" smooth="yes"/>
      <point x="313" y="19"/>
      <point x="336" y="5"/>
      <point x="336" y="-15" type="curve" smooth="yes"/>
      <point x="336" y="-43"/>
      <point x="304" y="-53"/>
      <point x="258" y="-53" type="curve" smooth="yes"/>
      <point x="183" y="-53"/>
      <point x="107" y="-19"/>
      <point x="43" y="29" type="curve"/>
      <point x="43" y="-152" type="line"/>
      <point x="102" y="-194"/>
      <point x="185" y="-225"/>
      <point x="265" y="-225" type="curve" smooth="yes"/>
      <point x="420" y="-225"/>
      <point x="543" y="-133"/>
      <point x="543" y="-5" type="curve" smooth="yes"/>
      <point x="543" y="59"/>
      <point x="506" y="111"/>
      <point x="409" y="147" type="curve" smooth="yes"/>
      <point x="337" y="174" type="line" smooth="yes"/>
      <point x="284" y="194"/>
      <point x="237" y="212"/>
      <point x="237" y="245" type="curve" smooth="yes"/>
      <point x="237" y="270"/>
      <point x="261" y="298"/>
      <point x="294" y="302" type="curve"/>
    </contour>
    <contour>
      <point x="465" y="65" type="line"/>
      <point x="515" y="102"/>
      <point x="543" y="144"/>
      <point x="543" y="215" type="curve" smooth="yes"/>
      <point x="543" y="279"/>
      <point x="506" y="340"/>
      <point x="409" y="377" type="curve" smooth="yes"/>
      <point x="337" y="404" type="line" smooth="yes"/>
      <point x="281" y="425"/>
      <point x="237" y="437"/>
      <point x="237" y="470" type="curve" smooth="yes"/>
      <point x="237" y="501"/>
      <point x="274" y="513"/>
      <point x="318" y="513" type="curve" smooth="yes"/>
      <point x="394" y="513"/>
      <point x="445" y="484"/>
      <point x="502" y="451" type="curve"/>
      <point x="502" y="632" type="line"/>
      <point x="455" y="664"/>
      <point x="371" y="685"/>
      <point x="293" y="685" type="curve" smooth="yes"/>
      <point x="162" y="685"/>
      <point x="40" y="608"/>
      <point x="40" y="467" type="curve" smooth="yes"/>
      <point x="40" y="386"/>
      <point x="69" y="330"/>
      <point x="182" y="290" type="curve" smooth="yes"/>
      <point x="277" y="256" type="line" smooth="yes"/>
      <point x="313" y="243"/>
      <point x="336" y="225"/>
      <point x="336" y="195" type="curve" smooth="yes"/>
      <point x="336" y="175"/>
      <point x="320" y="165"/>
      <point x="295" y="160" type="curve"/>
    </contour>
  </outline>
</glyph>
<glyph name="dieresis" format="1">
  <advance width="522"/>
  <unicode hex="00A8"/>
  <outline>
    <component base="dotaccent" xOffset="216" yOffset="15"/>
    <component base="dotaccent" xOffset="6" yOffset="15"/>
    <contour>
      <point x="267" y="510" type="move" name="_top"/>
    </contour>
  </outline>
</glyph>
<glyph name="ordfeminine" format="1">
  <advance width="395"/>
  <unicode hex="00AA"/>
  <outline>
    <contour>
      <point x="172" y="685" type="curve" smooth="yes"/>
      <point x="98" y="685"/>
      <point x="35" y="627"/>
      <point x="35" y="525" type="curve" smooth="yes"/>
      <point x="35" y="414"/>
      <point x="98" y="364"/>
      <point x="166" y="364" type="curve" smooth="yes"/>
      <point x="210" y="364"/>
      <point x="242" y="389"/>
      <point x="257" y="422" type="curve"/>
      <point x="257" y="373" type="line"/>
      <point x="360" y="373" type="line"/>
      <point x="360" y="676" type="line"/>
      <point x="257" y="676" type="line"/>
      <point x="257" y="648" type="line"/>
      <point x="237" y="669"/>
      <point x="204" y="685"/>
    </contour>
    <contour>
      <point x="194" y="585" type="curve" smooth="yes"/>
      <point x="216" y="585"/>
      <point x="239" y="574"/>
      <point x="257" y="560" type="curve"/>
      <point x="257" y="530" type="line" smooth="yes"/>
      <point x="257" y="486"/>
      <point x="222" y="467"/>
      <point x="197" y="467" type="curve" smooth="yes"/>
      <point x="164" y="467"/>
      <point x="142" y="492"/>
      <point x="142" y="525" type="curve" smooth="yes"/>
      <point x="142" y="557"/>
      <point x="164" y="585"/>
    </contour>
    <contour>
      <point x="553" y="10" type="move" name="ogonek"/>
    </contour>
    <contour>
      <point x="323" y="510" type="move" name="top"/>
    </contour>
  </outline>
</glyph>
<glyph name="registered" format="1">
  <advance width="864"/>
  <unicode hex="00AE"/>
  <outline>
    <contour>
      <point x="208" y="723"/>
      <point x="40" y="548"/>
      <point x="40" y="335" type="curve" smooth="yes"/>
      <point x="40" y="122"/>
      <point x="208" y="-53"/>
      <point x="432" y="-53" type="curve" smooth="yes"/>
      <point x="656" y="-53"/>
      <point x="824" y="122"/>
      <point x="824" y="335" type="curve" smooth="yes"/>
      <point x="824" y="548"/>
      <point x="656" y="723"/>
      <point x="432" y="723" type="curve" smooth="yes"/>
    </contour>
    <contour>
      <point x="600" y="620"/>
      <point x="713" y="503"/>
      <point x="713" y="335" type="curve" smooth="yes"/>
      <point x="713" y="167"/>
      <point x="600" y="50"/>
      <point x="432" y="50" type="curve" smooth="yes"/>
      <point x="264" y="50"/>
      <point x="151" y="167"/>
      <point x="151" y="335" type="curve" smooth="yes"/>
      <point x="151" y="503"/>
      <point x="264" y="620"/>
      <point x="432" y="620" type="curve" smooth="yes"/>
    </contour>
    <component base="R" xOffset="243" yOffset="136" xScale="0.593" yScale="0.593"/>
  </outline>
</glyph>
<glyph name="macron" format="1">
  <advance width="570"/>
  <unicode hex="00AF"/>
  <outline>
    <contour>
      <point x="100" y="710" type="line"/>
      <point x="100" y="600" type="line"/>
      <point x="470" y="600" type="line"/>
      <point x="470" y="710" type="line"/>
    </contour>
    <contour>
      <point x="285" y="510" type="move" name="_top"/>
    </contour>
  </outline>
</glyph>
<glyph name="degree" format="1">
  <advance width="413"/>
  <unicode hex="00B0"/>
  <outline>
    <contour>
      <point x="107" y="685"/>
      <point x="35" y="606"/>
      <point x="35" y="513" type="curve" smooth="yes"/>
      <point x="35" y="418"/>
      <point x="107" y="340"/>
      <point x="207" y="340" type="curve" smooth="yes"/>
      <point x="307" y="340"/>
      <point x="378" y="418"/>
      <point x="378" y="513" type="curve" smooth="yes"/>
      <point x="378" y="606"/>
      <point x="307" y="685"/>
      <point x="207" y="685" type="curve" smooth="yes"/>
    </contour>
    <contour>
      <point x="235" y="565"/>
      <point x="258" y="540"/>
      <point x="258" y="513" type="curve" smooth="yes"/>
      <point x="258" y="483"/>
      <point x="235" y="459"/>
      <point x="207" y="459" type="curve" smooth="yes"/>
      <point x="178" y="459"/>
      <point x="155" y="483"/>
      <point x="155" y="513" type="curve" smooth="yes"/>
      <point x="155" y="540"/>
      <point x="178" y="565"/>
      <point x="207" y="565" type="curve" smooth="yes"/>
    </contour>
  </outline>
</glyph>
<glyph name="plusminus" format="1">
  <advance width="531"/>
  <unicode hex="00B1"/>
  <outline>
    <contour>
      <point x="200" y="510" type="line"/>
      <point x="200" y="179" type="line"/>
      <point x="330" y="179" type="line"/>
      <point x="330" y="510" type="line"/>
    </contour>
    <contour>
      <point x="80" y="410" type="line"/>
      <point x="80" y="280" type="line"/>
      <point x="450" y="280" type="line"/>
      <point x="450" y="410" type="line"/>
    </contour>
    <contour>
      <point x="80" y="130" type="line"/>
      <point x="80" y="0" type="line"/>
      <point x="451" y="0" type="line"/>
      <point x="451" y="130" type="line"/>
    </contour>
  </outline>
</glyph>
<glyph name="uni00B3" format="1">
  <advance width="271"/>
  <unicode hex="00B3"/>
  <outline>
    <contour>
      <point x="117.631" y="675.317" type="curve" smooth="yes"/>
      <point x="84.972" y="675.317"/>
      <point x="62.463" y="664.725"/>
      <point x="47.017" y="650.602" type="curve"/>
      <point x="47.017" y="579.547" type="line"/>
      <point x="63.787" y="595.435"/>
      <point x="80.558" y="602.496"/>
      <point x="101.301" y="602.496" type="curve" smooth="yes"/>
      <point x="124.251" y="602.496"/>
      <point x="146.759" y="593.228"/>
      <point x="146.759" y="571.602" type="curve" smooth="yes"/>
      <point x="146.759" y="549.977"/>
      <point x="123.809" y="553.508"/>
      <point x="99.977" y="553.508" type="curve"/>
      <point x="77.91" y="553.508" type="line"/>
      <point x="77.91" y="493.485" type="line"/>
      <point x="99.977" y="493.485" type="line"/>
      <point x="123.809" y="493.485"/>
      <point x="146.759" y="490.396"/>
      <point x="146.759" y="470.095" type="curve" smooth="yes"/>
      <point x="146.759" y="448.028"/>
      <point x="126.458" y="439.201"/>
      <point x="101.301" y="439.201" type="curve" smooth="yes"/>
      <point x="79.234" y="439.201"/>
      <point x="60.257" y="446.262"/>
      <point x="40.396" y="459.061" type="curve"/>
      <point x="40.396" y="387.123" type="line"/>
      <point x="56.726" y="374.765"/>
      <point x="86.296" y="366.38"/>
      <point x="115.424" y="366.38" type="curve" smooth="yes"/>
      <point x="178.094" y="366.38"/>
      <point x="231.496" y="402.128"/>
      <point x="231.496" y="455.972" type="curve" smooth="yes"/>
      <point x="231.496" y="495.692"/>
      <point x="205.898" y="515.994"/>
      <point x="174.122" y="522.172" type="curve"/>
      <point x="205.898" y="526.586"/>
      <point x="231.496" y="550.418"/>
      <point x="231.496" y="590.139" type="curve" smooth="yes"/>
      <point x="231.496" y="640.01"/>
      <point x="183.832" y="675.317"/>
    </contour>
  </outline>
</glyph>
<glyph name="acute" format="1">
  <advance width="364"/>
  <unicode hex="00B4"/>
  <outline>
    <contour>
      <point x="180" y="710" type="line"/>
      <point x="80" y="560" type="line"/>
      <point x="202" y="560" type="line"/>
      <point x="334" y="710" type="line"/>
    </contour>
    <contour>
      <point x="164" y="510" type="move" name="_top"/>
    </contour>
  </outline>
</glyph>
<glyph name="paragraph" format="1">
  <advance width="660"/>
  <unicode hex="00B6"/>
  <outline>
    <contour>
      <point x="570" y="670" type="line"/>
      <point x="283" y="670" type="line" smooth="yes"/>
      <point x="151" y="670"/>
      <point x="30" y="609"/>
      <point x="30" y="451" type="curve" smooth="yes"/>
      <point x="30" y="296"/>
      <point x="151" y="232"/>
      <point x="283" y="232" type="curve" smooth="yes"/>
      <point x="333" y="232" type="line"/>
      <point x="333" y="-210" type="line"/>
      <point x="428" y="-210" type="line"/>
      <point x="428" y="544" type="line"/>
      <point x="478" y="544" type="line"/>
      <point x="478" y="-210" type="line"/>
      <point x="570" y="-210" type="line"/>
    </contour>
  </outline>
</glyph>
<glyph name="cedilla" format="1">
  <advance width="348"/>
  <unicode hex="00B8"/>
  <outline>
    <contour>
      <point x="117" y="2" type="line"/>
      <point x="105" y="-114" type="line"/>
      <point x="129" y="-126" type="line"/>
      <point x="142" y="-119"/>
      <point x="149" y="-117"/>
      <point x="159" y="-117" type="curve" smooth="yes"/>
      <point x="174" y="-117"/>
      <point x="189" y="-125"/>
      <point x="189" y="-141" type="curve" smooth="yes"/>
      <point x="189" y="-159"/>
      <point x="170" y="-167"/>
      <point x="157" y="-167" type="curve" smooth="yes"/>
      <point x="128" y="-167"/>
      <point x="108" y="-152"/>
      <point x="87" y="-141" type="curve"/>
      <point x="80" y="-215" type="line"/>
      <point x="101" y="-232"/>
      <point x="140" y="-240"/>
      <point x="160" y="-240" type="curve" smooth="yes"/>
      <point x="229" y="-240"/>
      <point x="278" y="-199"/>
      <point x="278" y="-131" type="curve" smooth="yes"/>
      <point x="278" y="-82"/>
      <point x="242" y="-44"/>
      <point x="188" y="-46" type="curve"/>
      <point x="191" y="2" type="line"/>
    </contour>
    <contour>
      <point x="178" y="0" type="move" name="_bottom"/>
    </contour>
  </outline>
</glyph>
<glyph name="AE" format="1">
  <advance width="1081"/>
  <unicode hex="00C6"/>
  <outline>
    <contour>
      <point x="483" y="670" type="line"/>
      <point x="10" y="0" type="line"/>
      <point x="198" y="0" type="line"/>
      <point x="552" y="508" type="line"/>
      <point x="574" y="670" type="line"/>
    </contour>
    <contour>
      <point x="267" y="270" type="line"/>
      <point x="267" y="133" type="line"/>
      <point x="588" y="133" type="line"/>
      <point x="588" y="270" type="line"/>
    </contour>
    <component base="E" xOffset="423"/>
    <contour>
      <point x="354" y="10" type="move" name="ogonek"/>
    </contour>
    <contour>
      <point x="83" y="670" type="move" name="top"/>
    </contour>
  </outline>
</glyph>
<glyph name="multiply" format="1">
  <advance width="600"/>
  <unicode hex="00D7"/>
  <outline>
    <contour>
      <point x="360" y="504" type="line"/>
      <point x="84" y="227" type="line"/>
      <point x="190" y="121" type="line"/>
      <point x="466" y="398" type="line"/>
    </contour>
    <contour>
      <point x="191" y="504" type="line"/>
      <point x="84" y="398" type="line"/>
      <point x="360" y="122" type="line"/>
      <point x="466" y="228" type="line"/>
    </contour>
  </outline>
</glyph>
<glyph name="Oslash" format="1">
  <advance width="776"/>
  <unicode hex="00D8"/>
  <outline>
    <contour>
      <point x="75" y="45" type="line"/>
      <point x="154" y="-15" type="line"/>
      <point x="712" y="625" type="line"/>
      <point x="630" y="685" type="line"/>
    </contour>
    <component base="O"/>
  </outline>
</glyph>
<glyph name="germandbls" format="1">
  <advance width="703"/>
  <unicode hex="00DF"/>
  <outline>
    <contour>
      <point x="134" y="725"/>
      <point x="40" y="647"/>
      <point x="40" y="514" type="curve" smooth="yes"/>
      <point x="40" y="0" type="line"/>
      <point x="182" y="0" type="line"/>
      <point x="182" y="485" type="line" smooth="yes"/>
      <point x="182" y="555"/>
      <point x="211" y="586"/>
      <point x="262" y="587" type="curve" smooth="yes"/>
      <point x="310" y="588"/>
      <point x="344" y="554"/>
      <point x="344" y="496" type="curve" smooth="yes"/>
      <point x="344" y="443"/>
      <point x="277" y="416"/>
      <point x="277" y="342" type="curve" smooth="yes"/>
      <point x="277" y="259"/>
      <point x="339" y="235"/>
      <point x="387" y="218" type="curve" smooth="yes"/>
      <point x="454" y="194" type="line" smooth="yes"/>
      <point x="492" y="180"/>
      <point x="539" y="169"/>
      <point x="539" y="144" type="curve" smooth="yes"/>
      <point x="539" y="121"/>
      <point x="505" y="115"/>
      <point x="470" y="115" type="curve" smooth="yes"/>
      <point x="403" y="115"/>
      <point x="328" y="136"/>
      <point x="280" y="156" type="curve"/>
      <point x="280" y="33" type="line"/>
      <point x="325" y="9"/>
      <point x="396" y="-10"/>
      <point x="472" y="-10" type="curve" smooth="yes"/>
      <point x="580" y="-10"/>
      <point x="683" y="54"/>
      <point x="683" y="154" type="curve" smooth="yes"/>
      <point x="683" y="227"/>
      <point x="636" y="261"/>
      <point x="561" y="288" type="curve" smooth="yes"/>
      <point x="502" y="309" type="line" smooth="yes"/>
      <point x="462" y="323"/>
      <point x="435" y="328"/>
      <point x="435" y="354" type="curve" smooth="yes"/>
      <point x="435" y="393"/>
      <point x="507" y="428"/>
      <point x="507" y="502" type="curve" smooth="yes"/>
      <point x="507" y="635"/>
      <point x="391" y="725"/>
      <point x="259" y="725" type="curve" smooth="yes"/>
    </contour>
  </outline>
</glyph>
<glyph name="ae" format="1">
  <advance width="1020"/>
  <unicode hex="00E6"/>
  <outline>
    <component base="e" xOffset="442"/>
    <component base="a"/>
    <contour>
      <point x="536" y="10" type="move" name="ogonek"/>
    </contour>
    <contour>
      <point x="307" y="500" type="move" name="top"/>
    </contour>
  </outline>
</glyph>
<glyph name="eth" format="1">
  <advance width="608"/>
  <unicode hex="00F0"/>
  <outline>
    <contour>
      <point x="226" y="635" type="line"/>
      <point x="278" y="598"/>
      <point x="387" y="515"/>
      <point x="411" y="443" type="curve"/>
      <point x="376" y="479"/>
      <point x="331" y="500"/>
      <point x="294" y="500" type="curve" smooth="yes"/>
      <point x="162" y="500"/>
      <point x="35" y="409"/>
      <point x="35" y="252" type="curve" smooth="yes"/>
      <point x="35" y="95"/>
      <point x="162" y="-15"/>
      <point x="304" y="-15" type="curve" smooth="yes"/>
      <point x="446" y="-15"/>
      <point x="573" y="92"/>
      <point x="573" y="292" type="curve" smooth="yes"/>
      <point x="573" y="475"/>
      <point x="473" y="610"/>
      <point x="323" y="726" type="curve"/>
    </contour>
    <contour>
      <point x="238" y="571" type="line"/>
      <point x="282" y="506" type="line"/>
      <point x="521" y="638" type="line"/>
      <point x="477" y="708" type="line"/>
    </contour>
    <contour>
      <point x="352" y="360"/>
      <point x="410" y="342"/>
      <point x="410" y="255" type="curve" smooth="yes"/>
      <point x="410" y="168"/>
      <point x="352" y="150"/>
      <point x="315" y="150" type="curve" smooth="yes"/>
      <point x="278" y="150"/>
      <point x="220" y="168"/>
      <point x="220" y="255" type="curve" smooth="yes"/>
      <point x="220" y="342"/>
      <point x="278" y="360"/>
      <point x="315" y="360" type="curve" smooth="yes"/>
    </contour>
  </outline>
</glyph>
<glyph name="divide" format="1">
  <advance width="551"/>
  <unicode hex="00F7"/>
  <outline>
    <contour>
      <point x="80" y="388" type="line"/>
      <point x="80" y="238" type="line"/>
      <point x="471" y="238" type="line"/>
      <point x="471" y="388" type="line"/>
    </contour>
    <contour>
      <point x="229" y="195"/>
      <point x="191" y="157"/>
      <point x="191" y="110" type="curve" smooth="yes"/>
      <point x="191" y="64"/>
      <point x="229" y="25"/>
      <point x="276" y="25" type="curve" smooth="yes"/>
      <point x="322" y="25"/>
      <point x="361" y="64"/>
      <point x="361" y="110" type="curve" smooth="yes"/>
      <point x="361" y="157"/>
      <point x="322" y="195"/>
      <point x="276" y="195" type="curve" smooth="yes"/>
    </contour>
    <contour>
      <point x="229" y="599"/>
      <point x="191" y="561"/>
      <point x="191" y="514" type="curve" smooth="yes"/>
      <point x="191" y="468"/>
      <point x="229" y="429"/>
      <point x="276" y="429" type="curve" smooth="yes"/>
      <point x="322" y="429"/>
      <point x="361" y="468"/>
      <point x="361" y="514" type="curve" smooth="yes"/>
      <point x="361" y="561"/>
      <point x="322" y="599"/>
      <point x="276" y="599" type="curve" smooth="yes"/>
    </contour>
  </outline>
</glyph>
<glyph name="oslash" format="1">
  <advance width="600"/>
  <unicode hex="00F8"/>
  <outline>
    <contour>
      <point x="47" y="35" type="line"/>
      <point x="116" y="-25" type="line"/>
      <point x="575" y="468" type="line"/>
      <point x="503" y="528" type="line"/>
    </contour>
    <component base="o"/>
  </outline>
</glyph>
<glyph name="dcaron" format="1">
  <advance width="762"/>
  <unicode hex="010F"/>
  <outline>
    <contour>
      <point x="605" y="530" type="line"/>
      <point x="727" y="530" type="line"/>
      <point x="757" y="718" type="line"/>
      <point x="615" y="718" type="line"/>
    </contour>
    <component base="d"/>
  </outline>
</glyph>
<glyph name="dcroat" format="1">
  <advance width="645"/>
  <unicode hex="0111"/>
  <outline>
    <contour>
      <point x="307" y="653" type="line"/>
      <point x="307" y="543" type="line"/>
      <point x="635" y="543" type="line"/>
      <point x="635" y="653" type="line"/>
    </contour>
    <component base="d"/>
  </outline>
</glyph>
<glyph name="Lcaron" format="1">
  <advance width="598"/>
  <unicode hex="013D"/>
  <outline>
    <contour>
      <point x="335" y="718" type="line"/>
      <point x="325" y="530" type="line"/>
      <point x="447" y="530" type="line"/>
      <point x="477" y="718" type="line"/>
    </contour>
    <component base="L"/>
  </outline>
</glyph>
<glyph name="lcaron" format="1">
  <advance width="422"/>
  <unicode hex="013E"/>
  <outline>
    <contour>
      <point x="265" y="530" type="line"/>
      <point x="387" y="530" type="line"/>
      <point x="417" y="718" type="line"/>
      <point x="275" y="718" type="line"/>
    </contour>
    <component base="l"/>
  </outline>
</glyph>
<glyph name="Lslash" format="1">
  <advance width="598"/>
  <unicode hex="0141"/>
  <outline>
    <contour>
      <point x="10" y="329" type="line"/>
      <point x="10" y="173" type="line"/>
      <point x="361" y="391" type="line"/>
      <point x="361" y="547" type="line"/>
    </contour>
    <component base="L"/>
  </outline>
</glyph>
<glyph name="lslash" format="1">
  <advance width="341"/>
  <unicode hex="0142"/>
  <outline>
    <contour>
      <point x="331" y="537" type="line"/>
      <point x="10" y="329" type="line"/>
      <point x="10" y="173" type="line"/>
      <point x="331" y="381" type="line"/>
    </contour>
    <component base="l" xOffset="15"/>
  </outline>
</glyph>
<glyph name="Eng" format="1">
  <advance width="782"/>
  <unicode hex="014A"/>
  <outline>
    <contour>
      <point x="634" y="224" type="line"/>
      <point x="156" y="680" type="line"/>
      <point x="90" y="680" type="line"/>
      <point x="90" y="0" type="line"/>
      <point x="277" y="0" type="line"/>
      <point x="277" y="329" type="line"/>
      <point x="571" y="51" type="line"/>
    </contour>
    <component base="J" xOffset="398"/>
    <contour>
      <point x="396" y="670" type="move" name="top"/>
    </contour>
    <contour>
      <point x="396" y="0" type="move" name="bottom"/>
    </contour>
  </outline>
</glyph>
<glyph name="eng" format="1">
  <advance width="633"/>
  <unicode hex="014B"/>
  <outline>
    <contour>
      <point x="390" y="184" type="line"/>
      <point x="390" y="11" type="line" smooth="yes"/>
      <point x="390" y="-48"/>
      <point x="350" y="-85"/>
      <point x="298" y="-108" type="curve"/>
      <point x="373" y="-255" type="line"/>
      <point x="498" y="-215"/>
      <point x="562" y="-130"/>
      <point x="562" y="-41" type="curve" smooth="yes"/>
      <point x="562" y="184" type="line"/>
    </contour>
    <component base="n"/>
  </outline>
</glyph>
<glyph name="OE" format="1">
  <advance width="1037"/>
  <unicode hex="0152"/>
  <outline>
    <contour>
      <point x="393" y="670" type="line"/>
      <point x="201" y="670"/>
      <point x="40" y="527"/>
      <point x="40" y="335" type="curve" smooth="yes"/>
      <point x="40" y="143"/>
      <point x="201" y="0"/>
      <point x="393" y="0" type="curve"/>
      <point x="486" y="0" type="line"/>
      <point x="486" y="135" type="line"/>
      <point x="393" y="135" type="line" smooth="yes"/>
      <point x="283" y="135"/>
      <point x="202" y="215"/>
      <point x="202" y="335" type="curve" smooth="yes"/>
      <point x="202" y="455"/>
      <point x="283" y="525"/>
      <point x="393" y="525" type="curve" smooth="yes"/>
      <point x="486" y="525" type="line"/>
      <point x="486" y="670" type="line"/>
    </contour>
    <component base="E" xOffset="379"/>
    <contour>
      <point x="393" y="670" type="move" name="top"/>
    </contour>
  </outline>
</glyph>
<glyph name="tcaron" format="1">
  <advance width="542"/>
  <unicode hex="0165"/>
  <outline>
    <contour>
      <point x="345" y="560" type="line"/>
      <point x="467" y="560" type="line"/>
      <point x="497" y="718" type="line"/>
      <point x="355" y="718" type="line"/>
    </contour>
    <component base="t"/>
  </outline>
</glyph>
<glyph name="tbar" format="1">
  <advance width="448"/>
  <unicode hex="0167"/>
  <outline>
    <contour>
      <point x="24" y="319" type="line"/>
      <point x="24" y="229" type="line"/>
      <point x="406" y="229" type="line"/>
      <point x="406" y="319" type="line"/>
    </contour>
    <component base="t"/>
  </outline>
</glyph>
<glyph name="circumflex" format="1">
  <advance width="504"/>
  <unicode hex="02C6"/>
  <outline>
    <contour>
      <point x="200" y="710" type="line"/>
      <point x="80" y="560" type="line"/>
      <point x="212" y="560" type="line"/>
      <point x="252" y="619" type="line"/>
      <point x="292" y="560" type="line"/>
      <point x="424" y="560" type="line"/>
      <point x="304" y="710" type="line"/>
    </contour>
    <contour>
      <point x="252" y="510" type="move" name="_top"/>
    </contour>
  </outline>
</glyph>
<glyph name="caron" format="1">
  <advance width="464"/>
  <unicode hex="02C7"/>
  <outline>
    <contour>
      <point x="60" y="710" type="line"/>
      <point x="180" y="560" type="line"/>
      <point x="284" y="560" type="line"/>
      <point x="404" y="710" type="line"/>
      <point x="272" y="710" type="line"/>
      <point x="232" y="651" type="line"/>
      <point x="192" y="710" type="line"/>
    </contour>
    <contour>
      <point x="232" y="510" type="move" name="_top"/>
    </contour>
  </outline>
</glyph>
<glyph name="breve" format="1">
  <advance width="484"/>
  <unicode hex="02D8"/>
  <outline>
    <contour>
      <point x="302" y="710" type="line"/>
      <point x="296" y="692"/>
      <point x="275" y="668"/>
      <point x="242" y="668" type="curve" smooth="yes"/>
      <point x="209" y="668"/>
      <point x="188" y="682"/>
      <point x="182" y="710" type="curve"/>
      <point x="80" y="710" type="line"/>
      <point x="83" y="618"/>
      <point x="152" y="560"/>
      <point x="242" y="560" type="curve" smooth="yes"/>
      <point x="332" y="560"/>
      <point x="401" y="618"/>
      <point x="404" y="710" type="curve"/>
    </contour>
    <contour>
      <point x="242" y="510" type="move" name="_top"/>
    </contour>
  </outline>
</glyph>
<glyph name="dotaccent" format="1">
  <advance width="312"/>
  <unicode hex="02D9"/>
  <outline>
    <contour>
      <point x="114" y="710"/>
      <point x="80" y="676"/>
      <point x="80" y="634" type="curve" smooth="yes"/>
      <point x="80" y="593"/>
      <point x="114" y="558"/>
      <point x="156" y="558" type="curve"/>
      <point x="197" y="558"/>
      <point x="232" y="593"/>
      <point x="232" y="634" type="curve" smooth="yes"/>
      <point x="232" y="676"/>
      <point x="197" y="710"/>
      <point x="156" y="710" type="curve" smooth="yes"/>
    </contour>
    <contour>
      <point x="156" y="510" type="move" name="_top"/>
    </contour>
  </outline>
</glyph>
<glyph name="ring" format="1">
  <advance width="341"/>
  <unicode hex="02DA"/>
  <outline>
    <contour>
      <point x="118" y="733"/>
      <point x="74" y="693"/>
      <point x="74" y="642" type="curve" smooth="yes"/>
      <point x="74" y="591"/>
      <point x="118" y="551"/>
      <point x="171" y="551" type="curve" smooth="yes"/>
      <point x="224" y="551"/>
      <point x="267" y="591"/>
      <point x="267" y="642" type="curve" smooth="yes"/>
      <point x="267" y="693"/>
      <point x="224" y="733"/>
      <point x="171" y="733" type="curve" smooth="yes"/>
    </contour>
    <contour>
      <point x="191" y="678"/>
      <point x="209" y="662"/>
      <point x="209" y="642" type="curve" smooth="yes"/>
      <point x="209" y="621"/>
      <point x="191" y="606"/>
      <point x="171" y="606" type="curve" smooth="yes"/>
      <point x="150" y="606"/>
      <point x="132" y="621"/>
      <point x="132" y="642" type="curve" smooth="yes"/>
      <point x="132" y="662"/>
      <point x="150" y="678"/>
      <point x="171" y="678" type="curve" smooth="yes"/>
    </contour>
    <contour>
      <point x="171" y="510" type="move" name="_top"/>
    </contour>
  </outline>
</glyph>
<glyph name="ogonek" format="1">
  <advance width="600"/>
  <unicode hex="02DB"/>
  <outline>
    <contour>
      <point x="193" y="-13"/>
      <point x="133" y="-56"/>
      <point x="133" y="-126" type="curve" smooth="yes"/>
      <point x="133" y="-192"/>
      <point x="200" y="-225"/>
      <point x="260" y="-225" type="curve" smooth="yes"/>
      <point x="316" y="-225"/>
      <point x="360" y="-210"/>
      <point x="374" y="-203" type="curve"/>
      <point x="374" y="-90" type="line"/>
      <point x="359" y="-100"/>
      <point x="343" y="-108"/>
      <point x="320" y="-108" type="curve" smooth="yes"/>
      <point x="299" y="-108"/>
      <point x="284" y="-94"/>
      <point x="284" y="-73" type="curve" smooth="yes"/>
      <point x="284" y="-51"/>
      <point x="331" y="-13"/>
      <point x="390" y="1" type="curve"/>
      <point x="250" y="1" type="line"/>
    </contour>
    <contour>
      <point x="390" y="10" type="move" name="_ogonek"/>
    </contour>
  </outline>
</glyph>
<glyph name="tilde" format="1">
  <advance width="450"/>
  <unicode hex="02DC"/>
  <outline>
    <contour>
      <point x="322" y="685" type="line"/>
      <point x="322" y="662"/>
      <point x="311" y="648"/>
      <point x="289" y="648" type="curve" smooth="yes"/>
      <point x="261" y="648"/>
      <point x="238" y="689"/>
      <point x="172" y="689" type="curve" smooth="yes"/>
      <point x="102" y="689"/>
      <point x="44" y="643"/>
      <point x="44" y="550" type="curve"/>
      <point x="138" y="550" type="line"/>
      <point x="138" y="573"/>
      <point x="150" y="587"/>
      <point x="171" y="587" type="curve" smooth="yes"/>
      <point x="199" y="587"/>
      <point x="222" y="546"/>
      <point x="288" y="546" type="curve" smooth="yes"/>
      <point x="358" y="546"/>
      <point x="416" y="592"/>
      <point x="416" y="685" type="curve"/>
    </contour>
    <contour>
      <point x="225" y="510" type="move" name="_top"/>
    </contour>
  </outline>
</glyph>
<glyph name="hungarumlaut" format="1">
  <advance width="548"/>
  <unicode hex="02DD"/>
  <outline>
    <component base="acute" xOffset="194"/>
    <component base="acute" xOffset="-10"/>
    <contour>
      <point x="259" y="510" type="move" name="_top"/>
    </contour>
  </outline>
</glyph>
<glyph name="commaaccent" format="1">
  <advance width="285"/>
  <unicode hex="0326"/>
  <outline>
    <contour>
      <point x="115" y="-101" type="line"/>
      <point x="130" y="-101"/>
      <point x="142" y="-108"/>
      <point x="142" y="-120" type="curve" smooth="yes"/>
      <point x="142" y="-132"/>
      <point x="131" y="-138"/>
      <point x="116" y="-138" type="curve" smooth="yes"/>
      <point x="100" y="-138"/>
      <point x="85" y="-134"/>
      <point x="69" y="-123" type="curve"/>
      <point x="69" y="-207" type="line"/>
      <point x="82" y="-216"/>
      <point x="100" y="-225"/>
      <point x="122" y="-225" type="curve" smooth="yes"/>
      <point x="175" y="-225"/>
      <point x="225" y="-190"/>
      <point x="225" y="-119" type="curve" smooth="yes"/>
      <point x="225" y="-54"/>
      <point x="172" y="-22"/>
      <point x="115" y="-22" type="curve"/>
    </contour>
    <contour>
      <point x="152" y="0" type="move" name="_bottom"/>
    </contour>
  </outline>
</glyph>
<glyph name="endash" format="1">
  <advance width="600"/>
  <unicode hex="2013"/>
  <outline>
    <contour>
      <point x="60" y="338" type="line"/>
      <point x="60" y="188" type="line"/>
      <point x="550" y="188" type="line"/>
      <point x="550" y="338" type="line"/>
    </contour>
  </outline>
</glyph>
<glyph name="emdash" format="1">
  <advance width="888"/>
  <unicode hex="2014"/>
  <outline>
    <contour>
      <point x="60" y="338" type="line"/>
      <point x="60" y="188" type="line"/>
      <point x="828" y="188" type="line"/>
      <point x="828" y="338" type="line"/>
    </contour>
  </outline>
</glyph>
<glyph name="quoteleft" format="1">
  <advance width="292"/>
  <unicode hex="2018"/>
  <outline>
    <contour>
      <point x="150" y="688" type="line"/>
      <point x="40" y="451" type="line"/>
      <point x="182" y="423" type="line"/>
      <point x="272" y="672" type="line"/>
    </contour>
  </outline>
</glyph>
<glyph name="quoteright" format="1">
  <advance width="292"/>
  <unicode hex="2019"/>
  <outline>
    <contour>
      <point x="30" y="439" type="line"/>
      <point x="152" y="423" type="line"/>
      <point x="262" y="660" type="line"/>
      <point x="120" y="688" type="line"/>
    </contour>
  </outline>
</glyph>
<glyph name="dagger" format="1">
  <advance width="463"/>
  <unicode hex="2020"/>
  <outline>
    <contour>
      <point x="153" y="670" type="line"/>
      <point x="153" y="-100" type="line"/>
      <point x="310" y="-100" type="line"/>
      <point x="310" y="670" type="line"/>
    </contour>
    <contour>
      <point x="40" y="520" type="line"/>
      <point x="40" y="380" type="line"/>
      <point x="423" y="380" type="line"/>
      <point x="423" y="520" type="line"/>
    </contour>
  </outline>
</glyph>
<glyph name="daggerdbl" format="1">
  <advance width="600"/>
  <unicode hex="2021"/>
  <outline>
    <contour>
      <point x="153" y="670" type="line"/>
      <point x="153" y="-100" type="line"/>
      <point x="310" y="-100" type="line"/>
      <point x="310" y="670" type="line"/>
    </contour>
    <contour>
      <point x="40" y="520" type="line"/>
      <point x="40" y="380" type="line"/>
      <point x="423" y="380" type="line"/>
      <point x="423" y="520" type="line"/>
    </contour>
    <contour>
      <point x="40" y="245" type="line"/>
      <point x="40" y="105" type="line"/>
      <point x="423" y="105" type="line"/>
      <point x="423" y="245" type="line"/>
    </contour>
  </outline>
</glyph>
<glyph name="bullet" format="1">
  <advance width="479"/>
  <unicode hex="2022"/>
  <outline>
    <contour>
      <point x="151" y="463"/>
      <point x="80" y="391"/>
      <point x="80" y="303" type="curve" smooth="yes"/>
      <point x="80" y="217"/>
      <point x="151" y="144"/>
      <point x="239" y="144" type="curve" smooth="yes"/>
      <point x="326" y="144"/>
      <point x="399" y="217"/>
      <point x="399" y="303" type="curve" smooth="yes"/>
      <point x="399" y="391"/>
      <point x="326" y="463"/>
      <point x="239" y="463" type="curve" smooth="yes"/>
    </contour>
  </outline>
</glyph>
<glyph name="guilsinglleft" format="1">
  <advance width="325"/>
  <unicode hex="2039"/>
  <outline>
    <contour>
      <point x="265" y="32" type="line"/>
      <point x="265" y="185" type="line"/>
      <point x="185" y="248" type="line"/>
      <point x="265" y="315" type="line"/>
      <point x="265" y="468" type="line"/>
      <point x="30" y="265" type="line"/>
      <point x="30" y="227" type="line"/>
    </contour>
  </outline>
</glyph>
<glyph name="guilsinglright" format="1">
  <advance width="325"/>
  <unicode hex="203A"/>
  <outline>
    <contour>
      <point x="60" y="468" type="line"/>
      <point x="60" y="315" type="line"/>
      <point x="140" y="252" type="line"/>
      <point x="60" y="185" type="line"/>
      <point x="60" y="32" type="line"/>
      <point x="295" y="235" type="line"/>
      <point x="295" y="273" type="line"/>
    </contour>
  </outline>
</glyph>
<glyph name="euro" format="1">
  <advance width="627"/>
  <unicode hex="20AC"/>
  <outline>
    <contour>
      <point x="286" y="685"/>
      <point x="113" y="557"/>
      <point x="113" y="335" type="curve" smooth="yes"/>
      <point x="113" y="113"/>
      <point x="286" y="-15"/>
      <point x="448" y="-15" type="curve" smooth="yes"/>
      <point x="491" y="-15"/>
      <point x="552" y="3"/>
      <point x="587" y="28" type="curve"/>
      <point x="587" y="205" type="line"/>
      <point x="556" y="178"/>
      <point x="522" y="160"/>
      <point x="475" y="160" type="curve" smooth="yes"/>
      <point x="385" y="160"/>
      <point x="305" y="235"/>
      <point x="305" y="335" type="curve" smooth="yes"/>
      <point x="305" y="435"/>
      <point x="385" y="510"/>
      <point x="475" y="510" type="curve" smooth="yes"/>
      <point x="522" y="510"/>
      <point x="556" y="492"/>
      <point x="587" y="465" type="curve"/>
      <point x="587" y="642" type="line"/>
      <point x="562" y="667"/>
      <point x="491" y="685"/>
      <point x="448" y="685" type="curve" smooth="yes"/>
    </contour>
    <contour>
      <point x="40" y="440" type="line"/>
      <point x="40" y="350" type="line"/>
      <point x="490" y="350" type="line"/>
      <point x="490" y="440" type="line"/>
    </contour>
    <contour>
      <point x="40" y="315" type="line"/>
      <point x="40" y="225" type="line"/>
      <point x="490" y="225" type="line"/>
      <point x="490" y="315" type="line"/>
    </contour>
  </outline>
</glyph>
<glyph name="trademark" format="1">
  <advance width="551"/>
  <unicode hex="2122"/>
  <outline>
    <contour>
      <point x="465" y="670" type="line"/>
      <point x="397" y="573" type="line"/>
      <point x="326" y="670" type="line"/>
      <point x="279" y="670" type="line"/>
      <point x="279" y="467" type="line"/>
      <point x="352" y="467" type="line"/>
      <point x="352" y="537" type="line"/>
      <point x="388" y="501" type="line"/>
      <point x="406" y="501" type="line"/>
      <point x="438" y="537" type="line"/>
      <point x="438" y="467" type="line"/>
      <point x="511" y="467" type="line"/>
      <point x="511" y="670" type="line"/>
    </contour>
    <contour>
      <point x="109" y="670" type="line"/>
      <point x="109" y="467" type="line"/>
      <point x="181" y="467" type="line"/>
      <point x="181" y="670" type="line"/>
    </contour>
    <contour>
      <point x="40" y="671" type="line"/>
      <point x="40" y="609" type="line"/>
      <point x="250" y="609" type="line"/>
      <point x="250" y="671" type="line"/>
    </contour>
  </outline>
</glyph>
<glyph name="minus" format="1">
  <advance width="531"/>
  <unicode hex="2212"/>
  <outline>
    <contour>
      <point x="451" y="388" type="line"/>
      <point x="80" y="388" type="line"/>
      <point x="80" y="238" type="line"/>
      <point x="451" y="238" type="line"/>
    </contour>
  </outline>
</glyph>
<glyph name="notequal" format="1">
  <advance width="551"/>
  <unicode hex="2260"/>
  <outline>
    <contour>
      <point x="323" y="550" type="line"/>
      <point x="94" y="42" type="line"/>
      <point x="212" y="42" type="line"/>
      <point x="444" y="550" type="line"/>
    </contour>
    <component base="equal"/>
  </outline>
</glyph>
<glyph name="greaterequal" format="1">
  <advance width="565"/>
  <unicode hex="2265"/>
  <outline>
    <contour>
      <point x="80" y="497" type="line"/>
      <point x="293" y="399" type="line"/>
      <point x="80" y="290" type="line"/>
      <point x="80" y="149" type="line"/>
      <point x="498" y="377" type="line"/>
      <point x="498" y="419" type="line"/>
      <point x="80" y="638" type="line"/>
    </contour>
    <contour>
      <point x="80" y="130" type="line"/>
      <point x="80" y="0" type="line"/>
      <point x="498" y="0" type="line"/>
      <point x="498" y="130" type="line"/>
    </contour>
  </outline>
</glyph>
<glyph name="idotless" format="1">
  <advance width="369"/>
  <outline>
    <contour>
      <point x="127" y="510" type="line"/>
      <point x="127" y="0" type="line"/>
      <point x="299" y="0" type="line"/>
      <point x="299" y="510" type="line"/>
    </contour>
    <contour>
      <point x="44" y="510" type="line"/>
      <point x="44" y="370" type="line"/>
      <point x="299" y="370" type="line"/>
      <point x="299" y="510" type="line"/>
    </contour>
    <contour>
      <point x="300" y="0" type="move" name="ogonek"/>
    </contour>
    <contour>
      <point x="187" y="510" type="move" name="top"/>
    </contour>
  </outline>
</glyph>
<glyph name="tt" format="1">
  <advance width="876"/>
  <outline>
    <contour>
      <point x="691" y="660" type="line"/>
      <point x="599" y="660" type="line"/>
      <point x="569" y="553"/>
      <point x="538" y="510"/>
      <point x="443" y="510" type="curve" smooth="yes"/>
      <point x="382" y="510" type="line"/>
      <point x="382" y="375" type="line"/>
      <point x="519" y="375" type="line"/>
      <point x="519" y="169" type="line" smooth="yes"/>
      <point x="519" y="53"/>
      <point x="601" y="-15"/>
      <point x="696" y="-15" type="curve" smooth="yes"/>
      <point x="762" y="-15"/>
      <point x="809" y="11"/>
      <point x="831" y="40" type="curve"/>
      <point x="831" y="174" type="line"/>
      <point x="806" y="159"/>
      <point x="782" y="152"/>
      <point x="750" y="152" type="curve" smooth="yes"/>
      <point x="713" y="152"/>
      <point x="691" y="183"/>
      <point x="691" y="232" type="curve" smooth="yes"/>
      <point x="691" y="375" type="line"/>
      <point x="825" y="375" type="line"/>
      <point x="825" y="510" type="line"/>
      <point x="691" y="510" type="line"/>
    </contour>
    <component base="t"/>
  </outline>
</glyph>
